<svg width="24" height="24" viewBox="0 0 24 24" fill="none" xmlns="http://www.w3.org/2000/svg">
<g id="pajamas:arrow-down">
<path id="Vector" fill-rule="evenodd" clip-rule="evenodd" d="M16.08 15.2385C16.183 15.128 16.3072 15.0393 16.4452 14.9778C16.5832 14.9163 16.7322 14.8833 16.8832 14.8806C17.0343 14.8779 17.1843 14.9057 17.3244 14.9623C17.4645 15.0189 17.5917 15.1031 17.6986 15.2099C17.8054 15.3168 17.8896 15.444 17.9462 15.5841C18.0028 15.7242 18.0306 15.8742 18.0279 16.0253C18.0252 16.1763 17.9922 16.3253 17.9307 16.4633C17.8692 16.6013 17.7805 16.7255 17.67 16.8285L12.795 21.7035L12 22.5L11.205 21.705L6.33 16.83C6.12497 16.6179 6.01144 16.3338 6.01386 16.0388C6.01629 15.7438 6.13447 15.4616 6.34296 15.2529C6.55144 15.0443 6.83355 14.9258 7.12852 14.9231C7.4235 14.9204 7.70773 15.0337 7.92 15.2385L10.875 18.1935V2.625C10.875 2.32663 10.9935 2.04048 11.2045 1.8295C11.4155 1.61853 11.7016 1.5 12 1.5C12.2984 1.5 12.5845 1.61853 12.7955 1.8295C13.0065 2.04048 13.125 2.32663 13.125 2.625V18.1935L16.08 15.2385Z" fill="white"/>
</g>
</svg>
