<svg width="21" height="21" viewBox="0 0 21 21" fill="none" xmlns="http://www.w3.org/2000/svg">
<path fill-rule="evenodd" clip-rule="evenodd" d="M17.0402 5.53788C17.2245 5.72245 17.3281 5.97265 17.3281 6.23351C17.3281 6.49437 17.2245 6.74456 17.0402 6.92913L9.03787 14.9314C8.94549 15.0237 8.83566 15.0967 8.7148 15.1462C8.59393 15.1956 8.46444 15.2205 8.33386 15.2194C8.20328 15.2183 8.07423 15.1912 7.95421 15.1398C7.8342 15.0883 7.72562 15.0135 7.6348 14.9196L4.48087 11.6594C4.39016 11.5666 4.31867 11.4569 4.27052 11.3364C4.22237 11.216 4.1985 11.0872 4.20029 10.9575C4.20208 10.8278 4.22948 10.6997 4.28093 10.5806C4.33238 10.4615 4.40686 10.3538 4.50009 10.2636C4.59332 10.1734 4.70346 10.1025 4.82417 10.055C4.94489 10.0075 5.0738 9.98437 5.2035 9.98686C5.3332 9.98936 5.46112 10.0175 5.57992 10.0696C5.69872 10.1217 5.80605 10.1967 5.89574 10.2904L8.35406 12.8314L15.6489 5.53788C15.8335 5.35354 16.0837 5.25 16.3446 5.25C16.6054 5.25 16.8556 5.35354 17.0402 5.53788Z" fill="#16C144"/>
</svg>
