<svg width="16" height="16" viewBox="0 0 16 16" fill="none" xmlns="http://www.w3.org/2000/svg">
<g id="pajamas:chevron-left">
<path id="Vector" fill-rule="evenodd" clip-rule="evenodd" d="M6.21999 11.78C6.07954 11.6394 6.00065 11.4488 6.00065 11.25C6.00065 11.0513 6.07954 10.8606 6.21999 10.72L8.93999 8L6.21999 5.28C6.1463 5.21134 6.0872 5.12854 6.04621 5.03654C6.00522 4.94454 5.98317 4.84523 5.9814 4.74453C5.97962 4.64382 5.99814 4.54379 6.03587 4.45041C6.07359 4.35702 6.12973 4.27218 6.20095 4.20097C6.27217 4.12975 6.357 4.0736 6.45039 4.03588C6.54378 3.99816 6.64381 3.97964 6.74451 3.98141C6.84521 3.98319 6.94453 4.00523 7.03653 4.04622C7.12853 4.08721 7.21133 4.14632 7.27999 4.22L10.53 7.47C10.6704 7.61063 10.7493 7.80125 10.7493 8C10.7493 8.19875 10.6704 8.38938 10.53 8.53L7.27999 11.78C7.13936 11.9205 6.94874 11.9993 6.74999 11.9993C6.55124 11.9993 6.36061 11.9205 6.21999 11.78Z" fill="white"/>
</g>
</svg>
