<svg width="24" height="27" viewBox="0 0 24 27" fill="none" xmlns="http://www.w3.org/2000/svg">
<path id="Union" fill-rule="evenodd" clip-rule="evenodd" d="M5.0625 21.1645C4.37002 20.4858 3.73827 19.7495 3.17373 18.9643C2.54377 18.0881 1.99751 17.151 1.54398 16.165C0.526826 13.9536 0.000119781 11.5483 0 9.11419V3.375L11.8125 0L23.625 3.375V9.1125C23.6251 11.5469 23.0985 13.9525 22.0814 16.1642C21.0642 18.3759 19.5806 20.3414 17.7323 21.9257L11.8125 27L8.85262 24.4628L7.37269 23.1943L5.89275 21.9257C5.60717 21.6809 5.33029 21.427 5.0625 21.1645ZM2 9.11419V9.11409V4.8836L11.8125 2.08003L21.625 4.8836V9.1125V9.1126C21.6251 11.2585 21.1609 13.379 20.2643 15.3286C19.3677 17.2781 18.0599 19.0107 16.4307 20.4072L16.4306 20.4072L11.8125 24.3658L10.1542 22.9444L8.67431 21.6758L7.19437 20.4072L7.19435 20.4072C6.29167 19.6334 5.48766 18.7566 4.79758 17.7968C4.24229 17.0244 3.76077 16.1984 3.36099 15.3292C2.4644 13.38 2.00012 11.2598 2 9.11419ZM17.1811 9.21222C17.1811 8.99879 17.0964 8.79408 16.9456 8.64307C16.7946 8.49224 16.5899 8.40753 16.3764 8.40753C16.163 8.40753 15.9583 8.49224 15.8073 8.64307L9.83874 14.6105L7.82739 12.5315C7.75401 12.4549 7.66619 12.3934 7.56899 12.3508C7.47179 12.3082 7.36713 12.2852 7.26101 12.2831C7.15489 12.2811 7.04942 12.3001 6.95065 12.3389C6.85189 12.3778 6.76177 12.4358 6.6855 12.5096C6.60922 12.5834 6.54828 12.6715 6.50618 12.769C6.46409 12.8664 6.44166 12.9712 6.4402 13.0773C6.43874 13.1834 6.45827 13.2888 6.49767 13.3873C6.53706 13.4859 6.59555 13.5757 6.66977 13.6516L9.25026 16.319C9.32456 16.3958 9.4134 16.457 9.51159 16.4991C9.60979 16.5413 9.71538 16.5634 9.82222 16.5643C9.92906 16.5652 10.035 16.5448 10.1339 16.5044C10.2328 16.4639 10.3226 16.4042 10.3982 16.3287L16.9456 9.78136C17.0964 9.63035 17.1811 9.42565 17.1811 9.21222Z" fill="url(#paint0_linear_680_373)"/>
<defs>
<linearGradient id="paint0_linear_680_373" x1="11.8106" y1="8.40752" x2="11.8125" y2="29.25" gradientUnits="userSpaceOnUse">
<stop stop-color="#16C144"/>
<stop offset="0.341069" stop-color="#16C144" stop-opacity="0.48"/>
<stop offset="1" stop-color="white" stop-opacity="0"/>
</linearGradient>
</defs>
</svg>
