<svg width="317" height="85" viewBox="0 0 317 85" fill="none" xmlns="http://www.w3.org/2000/svg">
<path d="M160.8 26.648C160.181 26.7547 159.616 26.7227 159.104 26.552C158.592 26.36 158.176 26.0507 157.856 25.624C157.557 25.176 157.408 24.6107 157.408 23.928C157.344 23.288 157.418 22.552 157.632 21.72C157.845 20.8667 158.154 20.0133 158.56 19.16C158.986 18.3067 159.445 17.5707 159.936 16.952C160.362 16.44 160.789 15.9707 161.216 15.544C161.642 15.1173 162.026 14.8293 162.368 14.68C162.666 14.552 162.944 14.4773 163.2 14.456C163.477 14.4133 163.701 14.392 163.872 14.392C164.213 14.4773 164.576 14.6373 164.96 14.872C165.365 15.0853 165.568 15.32 165.568 15.576C165.568 15.576 165.589 15.608 165.632 15.672C165.696 15.7147 165.728 15.736 165.728 15.736C165.856 15.736 165.962 15.8747 166.048 16.152C166.154 16.4293 166.218 16.7493 166.24 17.112C166.261 17.4533 166.208 17.7413 166.08 17.976C165.994 18.3813 165.845 18.7333 165.632 19.032C165.418 19.3307 165.226 19.48 165.056 19.48C164.97 19.48 164.885 19.4907 164.8 19.512C164.736 19.512 164.704 19.5653 164.704 19.672C164.704 19.7787 164.64 19.8213 164.512 19.8C164.405 19.7787 164.288 19.7147 164.16 19.608C164.032 19.48 163.936 19.3307 163.872 19.16C163.872 19.0533 163.914 18.872 164 18.616C164.085 18.36 164.17 18.0293 164.256 17.624C164.384 17.0267 164.373 16.6427 164.224 16.472C164.074 16.28 163.786 16.2693 163.36 16.44C162.826 16.7387 162.314 17.1547 161.824 17.688C161.354 18.2213 160.917 18.9147 160.512 19.768C160.106 20.6 159.744 21.6453 159.424 22.904C159.296 23.3947 159.242 23.8213 159.264 24.184C159.306 24.5467 159.36 24.7387 159.424 24.76C159.722 24.8453 160.128 24.8667 160.64 24.824C161.152 24.76 161.525 24.664 161.76 24.536C162.101 24.3653 162.485 24.1413 162.912 23.864C163.338 23.5653 163.712 23.2987 164.032 23.064C164.138 23 164.266 22.8933 164.416 22.744C164.565 22.5947 164.725 22.4773 164.896 22.392C165.066 22.136 165.216 21.9867 165.344 21.944C165.472 21.9013 165.664 21.88 165.92 21.88C166.09 21.9227 166.25 21.9867 166.4 22.072C166.549 22.1573 166.645 22.2427 166.688 22.328C166.752 22.4133 166.72 22.488 166.592 22.552C166.506 22.552 166.453 22.584 166.432 22.648C166.432 22.6907 166.432 22.712 166.432 22.712C166.474 22.7973 166.378 22.9787 166.144 23.256C165.93 23.512 165.653 23.8 165.312 24.12C164.97 24.44 164.64 24.7173 164.32 24.952C164.021 25.1653 163.808 25.272 163.68 25.272C163.466 25.272 163.36 25.336 163.36 25.464C163.36 25.5067 163.2 25.6133 162.88 25.784C162.581 25.9547 162.229 26.1253 161.824 26.296C161.44 26.4667 161.098 26.584 160.8 26.648ZM166.831 25.848C166.745 25.6773 166.639 25.5493 166.511 25.464C166.383 25.3573 166.319 25.2613 166.319 25.176C166.319 25.0907 166.308 25.0053 166.287 24.92C166.287 24.8133 166.244 24.7173 166.159 24.632C166.052 24.504 166.063 24.216 166.191 23.768C166.319 23.2987 166.532 22.7333 166.831 22.072C167.129 21.3893 167.481 20.6747 167.887 19.928C168.057 19.7573 168.228 19.5333 168.399 19.256C168.569 18.9787 168.697 18.7973 168.783 18.712C168.783 18.6267 168.815 18.552 168.879 18.488C168.943 18.4027 169.017 18.36 169.103 18.36V18.168C169.103 18.0613 169.199 17.88 169.391 17.624C169.604 17.368 169.86 17.0907 170.159 16.792C170.457 16.472 170.767 16.1733 171.087 15.896C171.407 15.5973 171.673 15.384 171.887 15.256C172.335 14.9573 172.793 14.776 173.263 14.712C173.753 14.648 174.169 14.7547 174.511 15.032C174.575 15.096 174.681 15.2027 174.831 15.352C174.98 15.5013 175.151 15.672 175.343 15.864C175.556 16.0347 175.769 16.216 175.983 16.408L177.167 17.464L176.591 19.064C176.313 19.9173 176.239 20.664 176.367 21.304C176.516 21.944 176.729 22.4987 177.007 22.968C177.113 23.2027 177.327 23.4267 177.647 23.64C177.988 23.8533 178.308 23.9813 178.607 24.024C178.777 24.0453 178.937 24.1093 179.087 24.216C179.236 24.3227 179.311 24.4933 179.311 24.728C179.311 24.9413 179.268 25.112 179.183 25.24C179.097 25.368 178.948 25.4533 178.735 25.496C178.031 25.5813 177.369 25.4107 176.751 24.984C176.153 24.5573 175.599 23.8533 175.087 22.872C175.001 22.744 174.884 22.5093 174.735 22.168C174.607 21.8053 174.532 21.5707 174.511 21.464C174.425 21.5707 174.265 21.7733 174.031 22.072C173.796 22.3493 173.615 22.552 173.487 22.68C171.972 24.216 170.66 25.2507 169.551 25.784C168.463 26.296 167.556 26.3173 166.831 25.848ZM167.983 24.056C167.983 24.2053 168.207 24.2053 168.655 24.056C169.124 23.8853 169.625 23.5867 170.159 23.16C170.884 22.5413 171.609 21.8587 172.335 21.112C173.081 20.3653 173.679 19.672 174.127 19.032L174.831 17.88C174.617 17.3893 174.383 17.0587 174.127 16.888C173.892 16.696 173.689 16.6 173.519 16.6C173.241 16.6 172.825 16.856 172.271 17.368C171.737 17.88 171.161 18.5627 170.543 19.416C169.924 20.2693 169.337 21.208 168.783 22.232C168.569 22.6587 168.377 23.0747 168.207 23.48C168.057 23.864 167.983 24.056 167.983 24.056ZM179.392 25.816C179.328 25.7307 179.264 25.624 179.2 25.496C179.157 25.368 179.136 25.2613 179.136 25.176C179.136 25.1333 179.125 25.08 179.104 25.016C179.104 24.952 179.061 24.92 178.976 24.92C178.912 24.856 178.954 24.6107 179.104 24.184C179.274 23.736 179.488 23.224 179.744 22.648C180.021 22.072 180.298 21.5173 180.576 20.984C180.874 20.4293 181.12 19.992 181.312 19.672C181.418 19.608 181.482 19.5227 181.504 19.416C181.546 19.288 181.546 19.224 181.504 19.224C181.504 19.224 181.557 19.128 181.664 18.936C181.792 18.7227 181.888 18.584 181.952 18.52C182.122 18.2213 182.25 17.9227 182.336 17.624C182.421 17.304 182.442 17.0373 182.4 16.824C182.314 16.7173 182.218 16.6853 182.112 16.728C182.005 16.7707 181.952 16.792 181.952 16.792C181.866 16.8133 181.738 16.856 181.568 16.92C181.418 16.9627 181.28 17.0267 181.152 17.112C180.661 17.4533 180.33 17.6133 180.16 17.592C179.989 17.5493 179.797 17.272 179.584 16.76C179.498 16.5253 179.466 16.3547 179.488 16.248C179.509 16.1413 179.594 16.024 179.744 15.896C179.914 15.7467 180.074 15.6507 180.224 15.608C180.373 15.544 180.49 15.48 180.576 15.416C180.81 15.2667 181.002 15.16 181.152 15.096C181.322 15.032 181.45 14.9893 181.536 14.968C182.09 14.7973 182.56 14.7653 182.944 14.872C183.328 14.9787 183.616 15.256 183.808 15.704C184.106 16.0667 184.256 16.4827 184.256 16.952C184.256 17.4 184.106 17.9227 183.808 18.52L183.488 19C183.381 19.2133 183.36 19.32 183.424 19.32C183.509 19.32 183.605 19.2453 183.712 19.096C183.776 19.0107 183.904 18.8827 184.096 18.712C184.288 18.5413 184.416 18.456 184.48 18.456C184.48 18.456 184.501 18.4453 184.544 18.424C184.608 18.4027 184.64 18.3173 184.64 18.168C184.704 18.104 184.768 18.04 184.832 17.976C184.917 17.912 184.96 17.88 184.96 17.88C185.045 17.88 185.205 17.784 185.44 17.592C185.696 17.3787 185.994 17.1333 186.336 16.856C186.57 16.6853 186.784 16.6 186.976 16.6C187.466 16.4507 187.861 16.6107 188.16 17.08C188.48 17.5493 188.64 18.1573 188.64 18.904L187.968 20.632L189.12 19.224C189.248 19.0533 189.376 18.904 189.504 18.776C189.653 18.648 189.781 18.5413 189.888 18.456C189.93 18.3067 189.994 18.2213 190.08 18.2C190.165 18.1787 190.208 18.168 190.208 18.168C190.208 18.168 190.229 18.168 190.272 18.168C190.314 18.1467 190.336 18.104 190.336 18.04C190.442 17.9547 190.56 17.88 190.688 17.816C190.816 17.7307 190.901 17.6453 190.944 17.56C191.306 17.4107 191.637 17.3893 191.936 17.496C192.234 17.5813 192.49 17.848 192.704 18.296C192.853 18.552 192.938 18.776 192.96 18.968C192.981 19.16 192.992 19.448 192.992 19.832C192.949 20.152 192.906 20.408 192.864 20.6C192.842 20.7707 192.821 20.952 192.8 21.144C192.778 21.336 192.746 21.6027 192.704 21.944C192.618 22.1147 192.565 22.296 192.544 22.488C192.544 22.68 192.544 22.8613 192.544 23.032C192.544 23.3093 192.554 23.5013 192.576 23.608C192.597 23.6933 192.682 23.736 192.832 23.736C193.13 23.672 193.536 23.5227 194.048 23.288C194.581 23.032 194.976 22.7867 195.232 22.552C195.552 22.2533 195.829 22.104 196.064 22.104C196.32 22.0827 196.48 22.2 196.544 22.456C196.586 22.5413 196.512 22.7333 196.32 23.032C196.149 23.3307 195.946 23.6187 195.712 23.896C195.498 24.1733 195.338 24.312 195.232 24.312C195.168 24.312 195.093 24.376 195.008 24.504C194.922 24.6107 194.826 24.696 194.72 24.76C194.57 24.9093 194.421 25.048 194.272 25.176C194.144 25.304 193.994 25.368 193.824 25.368C193.738 25.368 193.632 25.4 193.504 25.464C193.397 25.5067 193.269 25.528 193.12 25.528C192.906 25.592 192.576 25.56 192.128 25.432C191.701 25.304 191.424 25.0053 191.296 24.536C191.21 24.3013 191.136 23.928 191.072 23.416C191.008 22.8827 191.018 22.3493 191.104 21.816C191.189 21.432 191.242 21.08 191.264 20.76C191.285 20.44 191.328 20.216 191.392 20.088C191.392 20.024 191.392 19.8747 191.392 19.64C191.392 19.384 191.36 19.256 191.296 19.256C191.21 19.256 191.008 19.416 190.688 19.736C190.389 20.0347 190.026 20.4187 189.6 20.888C189.194 21.3573 188.789 21.848 188.384 22.36C187.978 22.872 187.648 23.3307 187.392 23.736C187.2 23.9707 187.029 24.2587 186.88 24.6C186.73 24.9413 186.624 25.1333 186.56 25.176C186.41 25.3467 186.229 25.368 186.016 25.24C185.824 25.112 185.642 24.9093 185.472 24.632C185.408 24.504 185.365 24.3973 185.344 24.312C185.322 24.2053 185.322 24.0667 185.344 23.896C185.386 23.704 185.461 23.4267 185.568 23.064C185.696 22.7013 185.866 22.1893 186.08 21.528C186.314 20.8027 186.517 20.152 186.688 19.576C186.88 18.9787 186.976 18.68 186.976 18.68C186.976 18.5947 186.816 18.68 186.496 18.936C186.176 19.1707 185.802 19.4693 185.376 19.832C185.184 20.0667 184.864 20.4187 184.416 20.888C183.968 21.3573 183.477 21.8907 182.944 22.488C182.41 23.0853 181.898 23.7147 181.408 24.376C180.789 25.2507 180.352 25.784 180.096 25.976C179.861 26.168 179.626 26.1147 179.392 25.816ZM194.601 34.136C194.452 34.072 194.292 33.9653 194.121 33.816C193.951 33.6667 193.812 33.496 193.705 33.304C193.599 33.1333 193.545 32.984 193.545 32.856C193.545 32.728 193.599 32.3867 193.705 31.832C193.812 31.2987 193.951 30.6373 194.121 29.848C194.313 29.08 194.516 28.2907 194.729 27.48C194.964 26.6907 195.199 25.9867 195.433 25.368C195.476 25.2613 195.615 24.9093 195.849 24.312C196.105 23.6933 196.351 22.9467 196.585 22.072C196.756 21.5173 196.98 20.888 197.257 20.184C197.535 19.48 197.823 18.776 198.121 18.072C198.42 17.3467 198.665 16.7067 198.857 16.152C199.049 15.5973 199.209 15.1493 199.337 14.808C199.487 14.4453 199.572 14.2213 199.593 14.136C199.636 14.008 199.7 13.9013 199.785 13.816C199.892 13.7093 199.999 13.624 200.105 13.56C200.212 13.4747 200.297 13.4213 200.361 13.4C200.745 13.2933 201.076 13.4533 201.353 13.88C201.46 14.072 201.481 14.296 201.417 14.552C201.353 14.808 201.236 15.128 201.065 15.512L200.841 16.152L201.993 15.896C202.185 15.896 202.42 15.9067 202.697 15.928C202.996 15.928 203.284 15.928 203.561 15.928C203.839 15.928 204.041 15.9493 204.169 15.992C204.681 16.0133 205.033 16.1093 205.225 16.28C205.439 16.4507 205.62 16.6747 205.769 16.952C205.876 17.0587 206.004 17.208 206.153 17.4C206.303 17.5707 206.388 17.7413 206.409 17.912C206.495 18.2747 206.495 18.6693 206.409 19.096C206.345 19.5013 206.217 19.9067 206.025 20.312C205.855 20.7173 205.62 21.0907 205.321 21.432C205.044 21.752 204.745 22.0187 204.425 22.232C204.212 22.3173 204.02 22.4133 203.849 22.52C203.679 22.6053 203.593 22.648 203.593 22.648C203.572 22.7547 203.337 22.9253 202.889 23.16C202.441 23.3733 201.929 23.576 201.353 23.768C200.777 23.96 200.276 24.088 199.849 24.152C199.7 24.1733 199.487 24.1947 199.209 24.216C198.932 24.2373 198.719 24.2053 198.569 24.12C198.335 24.0773 198.175 24.056 198.089 24.056C198.004 24.056 197.961 24.0987 197.961 24.184C197.94 24.2267 197.791 24.6747 197.513 25.528C197.236 26.3813 196.948 27.3733 196.649 28.504C196.244 29.7413 195.913 30.7227 195.657 31.448C195.401 32.1947 195.199 32.7493 195.049 33.112C194.921 33.4747 194.825 33.72 194.761 33.848C194.697 33.9973 194.644 34.0933 194.601 34.136ZM198.601 22.328C198.665 22.456 198.868 22.4987 199.209 22.456C199.572 22.392 199.999 22.264 200.489 22.072C201.001 21.8587 201.503 21.624 201.993 21.368C202.484 21.0907 202.889 20.8133 203.209 20.536C203.679 20.0027 204.063 19.512 204.361 19.064C204.66 18.5947 204.703 18.2853 204.489 18.136C204.255 17.7947 203.817 17.6347 203.177 17.656C202.537 17.6773 201.748 17.944 200.809 18.456C200.447 18.584 200.169 18.7547 199.977 18.968C199.807 19.16 199.657 19.4053 199.529 19.704C199.401 20.0027 199.241 20.3653 199.049 20.792C198.857 21.2613 198.729 21.6133 198.665 21.848C198.601 22.0827 198.58 22.2427 198.601 22.328ZM213.543 26.936C213.394 27.0213 213.191 26.9893 212.935 26.84C212.7 26.6907 212.466 26.4667 212.231 26.168C212.082 25.912 211.975 25.6347 211.911 25.336C211.868 25.0373 211.847 24.6213 211.847 24.088C211.868 23.6613 211.847 23.384 211.783 23.256C211.74 23.128 211.623 23.1493 211.431 23.32C211.239 23.4693 210.908 23.7787 210.439 24.248C209.906 24.7813 209.394 25.1973 208.903 25.496C208.434 25.7947 208.05 25.9333 207.751 25.912C207.602 25.912 207.431 25.8373 207.239 25.688C207.068 25.5173 206.908 25.3147 206.759 25.08C206.61 24.824 206.482 24.568 206.375 24.312C206.247 23.8427 206.226 23.2453 206.311 22.52C206.418 21.7733 206.588 20.9947 206.823 20.184C207.058 19.3733 207.324 18.6053 207.623 17.88C207.943 17.1547 208.263 16.568 208.583 16.12C208.924 15.672 209.223 15.448 209.479 15.448C209.65 15.448 209.799 15.5333 209.927 15.704C210.076 15.8747 210.226 16.1413 210.375 16.504C210.46 16.6533 210.492 16.7813 210.471 16.888C210.471 16.9947 210.386 17.1227 210.215 17.272C210.023 17.528 209.799 17.912 209.543 18.424C209.308 18.936 209.074 19.4907 208.839 20.088C208.626 20.6853 208.434 21.2613 208.263 21.816C208.092 22.3707 207.975 22.8293 207.911 23.192C207.847 23.5333 207.858 23.704 207.943 23.704C208.242 23.704 208.594 23.5867 208.999 23.352C209.426 23.096 209.831 22.7867 210.215 22.424C210.663 21.976 211.058 21.4853 211.399 20.952C211.762 20.4187 212.124 19.8533 212.487 19.256C212.764 18.8293 213.052 18.36 213.351 17.848C213.671 17.336 213.874 16.9733 213.959 16.76C214.258 16.2053 214.482 15.832 214.631 15.64C214.78 15.4267 214.962 15.288 215.175 15.224C215.282 15.224 215.378 15.224 215.463 15.224C215.57 15.224 215.623 15.224 215.623 15.224C215.751 15.2453 215.9 15.3413 216.071 15.512C216.242 15.5973 216.338 15.6827 216.359 15.768C216.38 15.832 216.391 15.9173 216.391 16.024C216.306 16.2373 216.167 16.5573 215.975 16.984C215.804 17.3893 215.676 17.688 215.591 17.88C215.186 18.7973 214.78 19.704 214.375 20.6C213.991 21.4747 213.714 22.3707 213.543 23.288C213.5 23.5867 213.49 23.9387 213.511 24.344C213.554 24.728 213.618 25.0053 213.703 25.176C213.767 25.304 213.842 25.4533 213.927 25.624C214.034 25.7733 214.151 25.9013 214.279 26.008C214.471 26.136 214.503 26.2747 214.375 26.424C214.268 26.5733 214.119 26.7013 213.927 26.808C213.735 26.8933 213.607 26.936 213.543 26.936ZM217.739 27.128C217.333 26.9573 216.949 26.7333 216.587 26.456C216.224 26.1573 215.989 25.912 215.883 25.72C215.883 25.528 215.915 25.4 215.979 25.336C216.043 25.2507 216.224 25.2187 216.523 25.24C216.843 25.24 217.355 25.2827 218.059 25.368C218.315 25.368 218.635 25.3467 219.019 25.304C219.403 25.2613 219.755 25.1973 220.075 25.112C220.416 25.0267 220.608 24.92 220.651 24.792C220.757 24.792 220.779 24.76 220.715 24.696C220.651 24.6107 220.576 24.5253 220.491 24.44C220.405 24.44 220.309 24.408 220.203 24.344C220.096 24.2587 220 24.216 219.915 24.216C219.915 24.1093 219.808 23.992 219.595 23.864C219.403 23.7147 219.2 23.5973 218.987 23.512C218.517 23.128 218.112 22.7867 217.771 22.488C217.429 22.168 217.301 21.9547 217.387 21.848C217.387 21.7627 217.387 21.72 217.387 21.72C217.387 21.6987 217.387 21.688 217.387 21.688C217.237 21.688 217.067 21.4747 216.875 21.048C216.704 20.6213 216.619 20.2373 216.619 19.896C216.619 19.64 216.693 19.32 216.843 18.936C216.992 18.5307 217.195 18.1147 217.451 17.688C217.707 17.2613 217.973 16.9093 218.251 16.632C218.635 16.2693 219.115 15.8853 219.691 15.48C220.267 15.0533 220.832 14.68 221.387 14.36C221.963 14.0187 222.443 13.7947 222.827 13.688C223.211 13.5387 223.563 13.464 223.883 13.464C224.224 13.464 224.523 13.5387 224.779 13.688C224.992 13.7947 225.184 13.9547 225.355 14.168C225.547 14.36 225.707 14.5627 225.835 14.776C225.984 14.968 226.08 15.1387 226.123 15.288C226.123 15.544 226.101 15.832 226.059 16.152C226.016 16.4507 225.952 16.7173 225.867 16.952C225.803 17.1867 225.696 17.304 225.547 17.304C225.547 17.304 225.515 17.3147 225.451 17.336C225.408 17.336 225.387 17.3893 225.387 17.496C225.387 17.7093 225.227 17.9547 224.907 18.232C224.501 18.5093 224.149 18.68 223.851 18.744C223.552 18.7867 223.371 18.6693 223.307 18.392C223.243 18.3067 223.2 18.232 223.179 18.168C223.157 18.104 223.104 18.072 223.019 18.072C223.019 18.072 222.987 18.04 222.923 17.976C222.859 17.912 222.827 17.8053 222.827 17.656C222.827 17.5707 222.859 17.496 222.923 17.432C222.987 17.3467 223.019 17.304 223.019 17.304C223.125 17.304 223.264 17.1867 223.435 16.952C223.605 16.696 223.755 16.4293 223.883 16.152C224.032 15.8533 224.107 15.6507 224.107 15.544C224.107 15.416 224.085 15.3413 224.043 15.32C224.021 15.2987 223.925 15.288 223.755 15.288C223.456 15.416 223.093 15.5867 222.667 15.8C222.24 16.0133 221.835 16.2267 221.451 16.44C221.088 16.632 220.821 16.8133 220.651 16.984C220.565 17.1333 220.512 17.2293 220.491 17.272C220.469 17.2933 220.416 17.304 220.331 17.304C220.331 17.2187 220.256 17.2613 220.107 17.432C219.979 17.5813 219.808 17.7947 219.595 18.072C219.403 18.3493 219.211 18.6267 219.019 18.904C218.848 19.16 218.72 19.352 218.635 19.48C218.592 19.5227 218.539 19.6507 218.475 19.864C218.432 20.056 218.411 20.2373 218.411 20.408C218.325 20.664 218.336 20.8453 218.443 20.952C218.549 21.0373 218.784 21.2293 219.147 21.528C219.893 22.0827 220.48 22.5413 220.907 22.904C221.333 23.2667 221.653 23.5653 221.867 23.8C222.08 24.0347 222.208 24.248 222.251 24.44C222.635 25.08 222.752 25.5707 222.603 25.912C222.453 26.2533 222.091 26.552 221.515 26.808C221.301 26.9147 220.949 27 220.459 27.064C219.968 27.128 219.467 27.16 218.955 27.16C218.443 27.1813 218.037 27.1707 217.739 27.128ZM227.109 21.304C226.981 21.304 226.821 21.304 226.629 21.304C226.437 21.2827 226.224 21.2293 225.989 21.144C225.669 21.144 225.456 21.112 225.349 21.048C225.242 20.9627 225.146 20.8453 225.061 20.696C224.826 20.376 224.805 20.1627 224.997 20.056C225.189 19.928 225.68 19.8213 226.469 19.736C227.194 19.5653 227.866 19.448 228.485 19.384C229.104 19.32 229.84 19.288 230.693 19.288C231.248 19.288 231.621 19.3093 231.813 19.352C232.005 19.3947 232.218 19.5333 232.453 19.768C232.773 20.088 232.89 20.3973 232.805 20.696C232.72 20.9733 232.432 21.0693 231.941 20.984C231.792 21.0053 231.514 21.0267 231.109 21.048C230.704 21.0693 230.309 21.1013 229.925 21.144C229.69 21.1653 229.317 21.1973 228.805 21.24C228.293 21.2827 227.728 21.304 227.109 21.304ZM235.499 26.776C235.264 26.7333 235.019 26.616 234.763 26.424C234.528 26.2107 234.315 25.976 234.123 25.72C233.952 25.4427 233.835 25.1973 233.771 24.984C233.771 24.9413 233.739 24.888 233.675 24.824C233.632 24.76 233.611 24.728 233.611 24.728C233.525 24.664 233.472 24.3867 233.451 23.896C233.451 23.384 233.483 22.8187 233.547 22.2C233.611 21.5813 233.685 21.0907 233.771 20.728C233.877 20.3867 234.037 19.928 234.251 19.352C234.464 18.7547 234.645 18.2213 234.795 17.752L235.659 15.896L234.379 15.544C234.229 15.5013 234.101 15.416 233.995 15.288C233.909 15.16 233.867 15.0533 233.867 14.968C233.867 14.7973 233.963 14.5947 234.155 14.36C234.347 14.104 234.485 13.976 234.571 13.976C234.677 13.9973 234.869 14.008 235.147 14.008C235.445 14.008 235.733 13.9973 236.011 13.976C236.288 13.9547 236.459 13.9333 236.523 13.912C236.608 13.8693 236.693 13.816 236.779 13.752C236.864 13.6667 236.928 13.5493 236.971 13.4C237.077 13.1653 237.173 12.952 237.259 12.76C237.344 12.5467 237.461 12.312 237.611 12.056C237.76 11.7787 237.877 11.544 237.963 11.352C238.069 11.16 238.229 10.8933 238.443 10.552C238.549 10.4027 238.667 10.2213 238.795 10.008C238.923 9.79467 239.083 9.61333 239.275 9.464C239.467 9.29333 239.659 9.21867 239.851 9.24C240.064 9.24 240.331 9.37867 240.651 9.656C240.821 9.86933 240.917 10.0293 240.939 10.136C240.96 10.2427 240.875 10.4453 240.683 10.744C240.512 11.1067 240.309 11.4693 240.075 11.832C239.861 12.1947 239.659 12.5573 239.467 12.92C239.125 13.3893 239.061 13.656 239.275 13.72C239.488 13.784 240.085 13.7413 241.067 13.592C241.685 13.4853 242.133 13.5173 242.411 13.688C242.688 13.8373 242.848 14.0933 242.891 14.456C242.955 14.968 242.901 15.2773 242.731 15.384C242.56 15.4907 242.069 15.544 241.259 15.544C240.747 15.6293 240.309 15.6827 239.947 15.704C239.584 15.704 239.317 15.704 239.147 15.704C238.869 15.7253 238.688 15.736 238.603 15.736C238.517 15.736 238.389 15.7573 238.219 15.8C238.048 15.8427 237.92 15.9173 237.835 16.024C237.771 16.1093 237.696 16.2373 237.611 16.408C237.525 16.4933 237.397 16.7173 237.227 17.08C237.056 17.4427 236.843 17.8373 236.587 18.264C236.288 19.16 236.032 20.056 235.819 20.952C235.605 21.8267 235.435 22.68 235.307 23.512C235.221 24.0453 235.232 24.4187 235.339 24.632C235.445 24.824 235.723 24.9413 236.171 24.984C236.405 25.0053 236.779 25.0053 237.291 24.984C237.824 24.9413 238.24 24.8773 238.539 24.792C238.773 24.6853 239.019 24.5787 239.275 24.472C239.531 24.344 239.765 24.216 239.979 24.088C240.171 23.9813 240.363 23.8747 240.555 23.768C240.747 23.64 240.843 23.576 240.843 23.576C240.949 23.4053 241.067 23.352 241.195 23.416C241.323 23.48 241.429 23.64 241.515 23.896C241.515 24.152 241.461 24.4187 241.355 24.696C241.248 24.9733 240.853 25.304 240.171 25.688C239.211 26.2853 238.325 26.648 237.515 26.776C236.725 26.8827 236.053 26.8827 235.499 26.776ZM243.692 26.52C243.415 26.52 243.191 26.4667 243.02 26.36C242.871 26.2533 242.679 26.104 242.444 25.912C242.039 25.4853 241.751 25.08 241.58 24.696C241.41 24.2907 241.356 23.9067 241.42 23.544C241.484 23.3733 241.506 23.2133 241.484 23.064C241.484 22.8933 241.484 22.808 241.484 22.808C241.378 22.7013 241.346 22.6373 241.388 22.616C241.431 22.5733 241.474 22.5093 241.516 22.424C241.644 22.424 241.687 22.3067 241.644 22.072C241.602 21.9013 241.687 21.528 241.9 20.952C242.114 20.376 242.38 19.832 242.7 19.32C242.828 19.1067 243.02 18.8293 243.276 18.488C243.532 18.1253 243.81 17.7733 244.108 17.432C244.428 17.0693 244.716 16.7813 244.972 16.568C245.506 16.12 245.975 15.7893 246.38 15.576C246.786 15.3627 247.223 15.2027 247.692 15.096C248.162 14.9893 248.482 14.936 248.652 14.936C248.844 14.936 249.1 15.1067 249.42 15.448C249.911 15.6613 250.263 15.9173 250.476 16.216C250.711 16.5147 250.86 16.952 250.924 17.528C250.988 18.168 250.935 18.904 250.764 19.736C250.615 20.5467 250.114 21.56 249.26 22.776C248.727 23.544 248.236 24.12 247.788 24.504C247.34 24.8667 246.807 25.2293 246.188 25.592C245.74 25.8907 245.335 26.1147 244.972 26.264C244.61 26.392 244.183 26.4773 243.692 26.52ZM246.764 23.128C247.276 22.552 247.682 22.008 247.98 21.496C248.3 20.984 248.599 20.3333 248.876 19.544C248.962 19.3093 249.015 19.0213 249.036 18.68C249.058 18.3173 249.047 17.9867 249.004 17.688C248.983 17.368 248.908 17.1867 248.78 17.144C248.524 16.9947 248.215 16.952 247.852 17.016C247.49 17.0587 247.095 17.2613 246.668 17.624C246.007 18.1787 245.431 18.872 244.94 19.704C244.45 20.5147 243.97 21.4427 243.5 22.488C243.18 23.256 243.106 23.8747 243.276 24.344C243.468 24.792 243.863 24.952 244.46 24.824C245.079 24.6747 245.847 24.1093 246.764 23.128ZM253.182 21.304C253.054 21.304 252.894 21.304 252.702 21.304C252.51 21.2827 252.296 21.2293 252.062 21.144C251.742 21.144 251.528 21.112 251.422 21.048C251.315 20.9627 251.219 20.8453 251.134 20.696C250.899 20.376 250.878 20.1627 251.07 20.056C251.262 19.928 251.752 19.8213 252.542 19.736C253.267 19.5653 253.939 19.448 254.558 19.384C255.176 19.32 255.912 19.288 256.766 19.288C257.32 19.288 257.694 19.3093 257.886 19.352C258.078 19.3947 258.291 19.5333 258.526 19.768C258.846 20.088 258.963 20.3973 258.878 20.696C258.792 20.9733 258.504 21.0693 258.014 20.984C257.864 21.0053 257.587 21.0267 257.182 21.048C256.776 21.0693 256.382 21.1013 255.998 21.144C255.763 21.1653 255.39 21.1973 254.878 21.24C254.366 21.2827 253.8 21.304 253.182 21.304ZM262.531 26.648C261.912 26.7547 261.347 26.7227 260.835 26.552C260.323 26.36 259.907 26.0507 259.587 25.624C259.288 25.176 259.139 24.6107 259.139 23.928C259.075 23.288 259.15 22.552 259.363 21.72C259.576 20.8667 259.886 20.0133 260.291 19.16C260.718 18.3067 261.176 17.5707 261.667 16.952C262.094 16.44 262.52 15.9707 262.947 15.544C263.374 15.1173 263.758 14.8293 264.099 14.68C264.398 14.552 264.675 14.4773 264.931 14.456C265.208 14.4133 265.432 14.392 265.603 14.392C265.944 14.4773 266.307 14.6373 266.691 14.872C267.096 15.0853 267.299 15.32 267.299 15.576C267.299 15.576 267.32 15.608 267.363 15.672C267.427 15.7147 267.459 15.736 267.459 15.736C267.587 15.736 267.694 15.8747 267.779 16.152C267.886 16.4293 267.95 16.7493 267.971 17.112C267.992 17.4533 267.939 17.7413 267.811 17.976C267.726 18.3813 267.576 18.7333 267.363 19.032C267.15 19.3307 266.958 19.48 266.787 19.48C266.702 19.48 266.616 19.4907 266.531 19.512C266.467 19.512 266.435 19.5653 266.435 19.672C266.435 19.7787 266.371 19.8213 266.243 19.8C266.136 19.7787 266.019 19.7147 265.891 19.608C265.763 19.48 265.667 19.3307 265.603 19.16C265.603 19.0533 265.646 18.872 265.731 18.616C265.816 18.36 265.902 18.0293 265.987 17.624C266.115 17.0267 266.104 16.6427 265.955 16.472C265.806 16.28 265.518 16.2693 265.091 16.44C264.558 16.7387 264.046 17.1547 263.555 17.688C263.086 18.2213 262.648 18.9147 262.243 19.768C261.838 20.6 261.475 21.6453 261.155 22.904C261.027 23.3947 260.974 23.8213 260.995 24.184C261.038 24.5467 261.091 24.7387 261.155 24.76C261.454 24.8453 261.859 24.8667 262.371 24.824C262.883 24.76 263.256 24.664 263.491 24.536C263.832 24.3653 264.216 24.1413 264.643 23.864C265.07 23.5653 265.443 23.2987 265.763 23.064C265.87 23 265.998 22.8933 266.147 22.744C266.296 22.5947 266.456 22.4773 266.627 22.392C266.798 22.136 266.947 21.9867 267.075 21.944C267.203 21.9013 267.395 21.88 267.651 21.88C267.822 21.9227 267.982 21.9867 268.131 22.072C268.28 22.1573 268.376 22.2427 268.419 22.328C268.483 22.4133 268.451 22.488 268.323 22.552C268.238 22.552 268.184 22.584 268.163 22.648C268.163 22.6907 268.163 22.712 268.163 22.712C268.206 22.7973 268.11 22.9787 267.875 23.256C267.662 23.512 267.384 23.8 267.043 24.12C266.702 24.44 266.371 24.7173 266.051 24.952C265.752 25.1653 265.539 25.272 265.411 25.272C265.198 25.272 265.091 25.336 265.091 25.464C265.091 25.5067 264.931 25.6133 264.611 25.784C264.312 25.9547 263.96 26.1253 263.555 26.296C263.171 26.4667 262.83 26.584 262.531 26.648ZM268.562 25.848C268.477 25.6773 268.37 25.5493 268.242 25.464C268.114 25.3573 268.05 25.2613 268.05 25.176C268.05 25.0907 268.039 25.0053 268.018 24.92C268.018 24.8133 267.975 24.7173 267.89 24.632C267.783 24.504 267.794 24.216 267.922 23.768C268.05 23.2987 268.263 22.7333 268.562 22.072C268.861 21.3893 269.213 20.6747 269.618 19.928C269.789 19.7573 269.959 19.5333 270.13 19.256C270.301 18.9787 270.429 18.7973 270.514 18.712C270.514 18.6267 270.546 18.552 270.61 18.488C270.674 18.4027 270.749 18.36 270.834 18.36V18.168C270.834 18.0613 270.93 17.88 271.122 17.624C271.335 17.368 271.591 17.0907 271.89 16.792C272.189 16.472 272.498 16.1733 272.818 15.896C273.138 15.5973 273.405 15.384 273.618 15.256C274.066 14.9573 274.525 14.776 274.994 14.712C275.485 14.648 275.901 14.7547 276.242 15.032C276.306 15.096 276.413 15.2027 276.562 15.352C276.711 15.5013 276.882 15.672 277.074 15.864C277.287 16.0347 277.501 16.216 277.714 16.408L278.898 17.464L278.322 19.064C278.045 19.9173 277.97 20.664 278.098 21.304C278.247 21.944 278.461 22.4987 278.738 22.968C278.845 23.2027 279.058 23.4267 279.378 23.64C279.719 23.8533 280.039 23.9813 280.338 24.024C280.509 24.0453 280.669 24.1093 280.818 24.216C280.967 24.3227 281.042 24.4933 281.042 24.728C281.042 24.9413 280.999 25.112 280.914 25.24C280.829 25.368 280.679 25.4533 280.466 25.496C279.762 25.5813 279.101 25.4107 278.482 24.984C277.885 24.5573 277.33 23.8533 276.818 22.872C276.733 22.744 276.615 22.5093 276.466 22.168C276.338 21.8053 276.263 21.5707 276.242 21.464C276.157 21.5707 275.997 21.7733 275.762 22.072C275.527 22.3493 275.346 22.552 275.218 22.68C273.703 24.216 272.391 25.2507 271.282 25.784C270.194 26.296 269.287 26.3173 268.562 25.848ZM269.714 24.056C269.714 24.2053 269.938 24.2053 270.386 24.056C270.855 23.8853 271.357 23.5867 271.89 23.16C272.615 22.5413 273.341 21.8587 274.066 21.112C274.813 20.3653 275.41 19.672 275.858 19.032L276.562 17.88C276.349 17.3893 276.114 17.0587 275.858 16.888C275.623 16.696 275.421 16.6 275.25 16.6C274.973 16.6 274.557 16.856 274.002 17.368C273.469 17.88 272.893 18.5627 272.274 19.416C271.655 20.2693 271.069 21.208 270.514 22.232C270.301 22.6587 270.109 23.0747 269.938 23.48C269.789 23.864 269.714 24.056 269.714 24.056ZM282.179 26.008C282.115 26.0293 282.008 26.0187 281.859 25.976C281.709 25.9333 281.56 25.88 281.411 25.816C281.261 25.752 281.165 25.6987 281.123 25.656C281.037 25.5707 280.952 25.4427 280.867 25.272C280.803 25.1013 280.803 24.856 280.867 24.536C280.931 24.1947 281.144 23.7573 281.507 23.224C281.613 23.0107 281.741 22.6907 281.891 22.264C282.04 21.8373 282.189 21.3893 282.339 20.92C282.509 20.4293 282.659 19.992 282.787 19.608C282.936 19.224 283.043 18.9573 283.107 18.808C283.149 18.4453 283.128 18.1893 283.043 18.04C282.979 17.8693 282.797 17.7733 282.499 17.752C282.285 17.752 282.115 17.7307 281.987 17.688C281.88 17.6453 281.827 17.432 281.827 17.048C281.869 16.7493 281.944 16.5467 282.051 16.44C282.179 16.312 282.349 16.1733 282.563 16.024C282.776 15.9173 282.989 15.8427 283.203 15.8C283.437 15.7573 283.661 15.7467 283.875 15.768C284.088 15.7893 284.259 15.864 284.387 15.992C284.536 16.0773 284.632 16.2693 284.675 16.568C284.717 16.8453 284.739 17.1333 284.739 17.432C284.76 17.7307 284.781 17.9547 284.803 18.104C285.016 17.9333 285.304 17.6987 285.667 17.4C286.051 17.08 286.381 16.7813 286.659 16.504C287 16.2693 287.405 16.0347 287.875 15.8C288.344 15.544 288.685 15.416 288.899 15.416C289.133 15.416 289.368 15.48 289.603 15.608C289.837 15.7147 289.997 15.8533 290.083 16.024C290.296 16.3867 290.392 16.7067 290.371 16.984C290.371 17.2613 290.253 17.5493 290.019 17.848C289.805 18.1253 289.539 18.3173 289.219 18.424C288.92 18.5307 288.728 18.584 288.643 18.584C288.515 18.584 288.355 18.488 288.163 18.296C287.971 18.104 287.864 17.944 287.843 17.816C287.843 17.752 287.704 17.816 287.427 18.008C287.171 18.1787 286.883 18.4027 286.563 18.68C286.243 18.936 285.976 19.1707 285.763 19.384C285.4 19.832 285.016 20.44 284.611 21.208C284.205 21.976 283.725 22.904 283.171 23.992C282.915 24.5253 282.733 24.984 282.627 25.368C282.52 25.7307 282.371 25.944 282.179 26.008ZM292.75 27.096C291.811 27.096 291.043 26.744 290.446 26.04C289.849 25.3147 289.561 24.4187 289.582 23.352C289.625 22.584 289.774 21.7627 290.03 20.888C290.307 19.992 290.67 19.1387 291.118 18.328C291.566 17.496 292.057 16.7707 292.59 16.152C293.123 15.5333 293.678 15.096 294.254 14.84C294.467 14.7333 294.691 14.648 294.926 14.584C295.182 14.52 295.438 14.488 295.694 14.488C295.929 14.488 296.174 14.5307 296.43 14.616C296.686 14.68 296.899 14.7547 297.07 14.84C297.433 14.9893 297.71 15.1707 297.902 15.384C298.094 15.5973 298.265 15.928 298.414 16.376C298.478 16.7813 298.51 17.0693 298.51 17.24C298.51 17.4107 298.457 17.6667 298.35 18.008C298.094 18.776 297.763 19.4373 297.358 19.992C296.953 20.5467 296.409 21.016 295.726 21.4C295.555 21.5067 295.353 21.592 295.118 21.656C294.905 21.6987 294.681 21.72 294.446 21.72C294.019 21.72 293.603 21.6453 293.198 21.496C292.814 21.3253 292.505 21.08 292.27 20.76L292.046 20.504L291.95 20.76C291.737 21.336 291.566 21.8693 291.438 22.36C291.331 22.8507 291.278 23.2987 291.278 23.704C291.278 23.96 291.299 24.2053 291.342 24.44C291.406 24.6747 291.491 24.8773 291.598 25.048C291.683 25.176 291.822 25.272 292.014 25.336C292.227 25.3787 292.451 25.4 292.686 25.4C292.835 25.4 292.985 25.4 293.134 25.4C293.305 25.3787 293.465 25.336 293.614 25.272C293.977 25.144 294.265 25.0053 294.478 24.856C294.713 24.7067 294.947 24.5467 295.182 24.376L295.31 24.312H295.278C295.534 24.184 295.758 24.056 295.95 23.928C296.163 23.8 296.27 23.736 296.27 23.736C296.355 23.736 296.441 23.6827 296.526 23.576C296.697 23.4907 296.91 23.5227 297.166 23.672C297.443 23.8213 297.582 24.0133 297.582 24.248C297.561 24.3547 297.465 24.5253 297.294 24.76C297.123 24.9733 296.931 25.176 296.718 25.368C296.526 25.56 296.366 25.6667 296.238 25.688C296.217 25.7093 296.142 25.752 296.014 25.816C295.886 25.8587 295.801 25.9013 295.758 25.944H295.79C295.598 26.2 295.406 26.328 295.214 26.328H294.958C294.873 26.4773 294.595 26.648 294.126 26.84C293.657 27.0107 293.198 27.096 292.75 27.096ZM294.19 20.056C294.574 20.056 294.905 19.9493 295.182 19.736C295.481 19.5013 295.737 19.2453 295.95 18.968C296.377 18.392 296.622 17.8373 296.686 17.304C296.771 16.7493 296.707 16.3653 296.494 16.152C296.366 16.088 296.249 16.056 296.142 16.056C296.057 16.0347 295.875 16.0667 295.598 16.152C295.406 16.1947 295.139 16.3547 294.798 16.632C294.457 16.9093 294.115 17.2187 293.774 17.56C293.454 17.9013 293.209 18.1893 293.038 18.424L292.622 19.096C292.793 19.032 292.953 19 293.102 19C293.273 18.9787 293.369 18.9893 293.39 19.032C293.39 19.224 293.422 19.4053 293.486 19.576C293.571 19.7253 293.667 19.8427 293.774 19.928C293.902 20.0133 294.041 20.056 294.19 20.056ZM300.244 26.232C299.412 25.8907 298.868 25.4213 298.612 24.824C298.378 24.2053 298.335 23.256 298.484 21.976C298.527 21.3147 298.548 20.8773 298.548 20.664C298.548 20.4507 298.431 20.2373 298.196 20.024C298.132 19.9387 298.015 19.8213 297.844 19.672C297.695 19.5227 297.631 19.3947 297.652 19.288C297.631 19.1387 297.642 18.9787 297.684 18.808C297.727 18.616 297.791 18.52 297.876 18.52C297.962 18.52 298.047 18.4987 298.132 18.456C298.239 18.4133 298.335 18.4133 298.42 18.456C298.506 18.456 298.602 18.4667 298.708 18.488C298.815 18.5093 298.868 18.5627 298.868 18.648C298.954 18.7973 299.092 18.8187 299.284 18.712C299.476 18.584 299.679 18.3067 299.892 17.88C300.106 17.5387 300.383 17.1973 300.724 16.856C301.087 16.5147 301.439 16.2053 301.78 15.928C302.143 15.6293 302.442 15.416 302.676 15.288C302.783 15.2453 302.943 15.192 303.156 15.128C303.37 15.064 303.594 15.0107 303.828 14.968C304.084 14.9253 304.298 14.9147 304.468 14.936C304.852 14.9573 305.172 15.064 305.428 15.256C305.706 15.448 305.962 15.672 306.196 15.928C306.474 16.12 306.644 16.376 306.708 16.696C306.794 17.016 306.815 17.3573 306.772 17.72C306.73 18.0827 306.634 18.4133 306.484 18.712C306.42 18.9253 306.239 19.1813 305.94 19.48C305.642 19.7787 305.3 20.0667 304.916 20.344C304.532 20.6213 304.18 20.824 303.86 20.952C303.583 21.016 303.22 21.0693 302.772 21.112C302.346 21.1547 301.94 21.176 301.556 21.176C301.194 21.1547 300.948 21.112 300.82 21.048C300.671 20.9627 300.554 21.08 300.468 21.4C300.383 21.72 300.319 22.1787 300.276 22.776C300.234 23.2453 300.234 23.5867 300.276 23.8C300.319 24.0133 300.362 24.1627 300.404 24.248C300.554 24.3973 300.756 24.5893 301.012 24.824C301.29 25.0373 301.674 25.0693 302.164 24.92C302.57 24.8133 302.964 24.536 303.348 24.088C303.754 23.64 304.127 23.2773 304.468 23C304.554 22.8507 304.692 22.7653 304.884 22.744C305.098 22.7013 305.322 22.712 305.556 22.776C305.791 22.9253 305.887 23.1067 305.844 23.32C305.823 23.512 305.716 23.8107 305.524 24.216C305.46 24.3653 305.311 24.5573 305.076 24.792C304.863 25.0053 304.618 25.2293 304.34 25.464C304.084 25.6773 303.85 25.848 303.636 25.976C302.996 26.3173 302.399 26.4987 301.844 26.52C301.29 26.52 300.756 26.424 300.244 26.232ZM302.132 19.736C302.602 19.6293 302.975 19.5547 303.252 19.512C303.53 19.4693 303.796 19.352 304.052 19.16C304.308 18.9467 304.628 18.552 305.012 17.976C305.098 17.7413 305.119 17.5067 305.076 17.272C305.055 17.0373 305.002 16.8773 304.916 16.792C304.724 16.5787 304.49 16.5147 304.212 16.6C303.956 16.664 303.711 16.7813 303.476 16.952C303.327 17.016 303.103 17.176 302.804 17.432C302.527 17.6667 302.25 17.944 301.972 18.264C301.695 18.5627 301.471 18.84 301.3 19.096C301.13 19.352 301.087 19.5013 301.172 19.544C301.13 19.6293 301.247 19.6827 301.524 19.704C301.823 19.7253 302.026 19.736 302.132 19.736ZM307.931 26.264C307.824 26.4773 307.664 26.5413 307.451 26.456C307.259 26.3707 307.099 26.2853 306.971 26.2C306.821 26.2 306.693 26.1573 306.587 26.072C306.48 25.9867 306.405 25.8587 306.363 25.688C306.32 25.56 306.309 25.4107 306.331 25.24C306.352 25.048 306.395 24.8347 306.459 24.6C306.544 24.344 306.629 24.0667 306.715 23.768C306.885 23.064 307.003 22.552 307.067 22.232C307.131 21.912 307.195 21.6347 307.259 21.4C307.323 21.1653 307.408 20.824 307.515 20.376C307.685 19.9493 307.824 19.5333 307.931 19.128C308.037 18.7227 308.197 18.3173 308.411 17.912C308.56 17.3573 308.741 16.8347 308.955 16.344C309.189 15.832 309.413 15.4053 309.627 15.064C309.669 15 309.744 14.9147 309.851 14.808C309.979 14.7013 310.085 14.648 310.171 14.648C310.341 14.4773 310.491 14.4133 310.619 14.456C310.768 14.4773 310.949 14.5733 311.163 14.744C311.419 15.0213 311.515 15.3413 311.451 15.704C311.408 16.0667 311.152 16.6 310.683 17.304C310.427 17.9653 310.192 18.5413 309.979 19.032C309.765 19.5013 309.616 19.9493 309.531 20.376C309.765 20.0347 310.021 19.7253 310.299 19.448C310.597 19.1493 310.843 18.904 311.035 18.712C311.504 18.2427 311.888 17.9013 312.187 17.688C312.507 17.4747 312.88 17.2293 313.307 16.952C313.563 16.7813 313.808 16.632 314.043 16.504C314.277 16.3547 314.533 16.248 314.811 16.184C315.109 16.12 315.429 16.12 315.771 16.184C315.984 16.1627 316.155 16.2267 316.283 16.376C316.432 16.5253 316.549 16.728 316.635 16.984C316.72 17.24 316.773 17.5387 316.795 17.88C316.304 17.7733 315.867 17.7947 315.483 17.944C315.099 18.072 314.768 18.232 314.491 18.424C314.235 18.616 314.032 18.7653 313.883 18.872C313.563 19.0853 313.157 19.3733 312.667 19.736C312.176 20.0773 311.685 20.4933 311.195 20.984C310.811 21.4107 310.48 21.7733 310.203 22.072C309.947 22.3707 309.733 22.6373 309.563 22.872C309.413 23.1067 309.296 23.352 309.211 23.608C308.997 24.0987 308.773 24.632 308.539 25.208C308.304 25.784 308.101 26.136 307.931 26.264Z" fill="white"/>
<path d="M1 12.9815C3.85078 12.5253 3.46191 18.7371 6.33938 19.6003C10.0403 20.7106 13.5784 19.0369 16.5014 16.7707C17.5354 15.9691 22.4146 11.0807 23.8584 13.0799C25.3049 15.0827 27.302 18.9994 30.1328 19.182C33.2199 19.3812 35.7354 15.878 38.1788 14.3348C41.3426 12.3366 42.5694 11.346 45.1421 14.3102C46.9563 16.4004 49.8424 18.8514 52.819 18.6653C56.5637 18.4313 59.3616 13.4894 62.9564 12.3909C66.6734 11.2552 67.7606 12.9032 70.2888 15.0975C72.367 16.9012 74.1326 18.1971 76.9815 17.8041C80.7577 17.2833 83.7538 13.3329 87.365 11.9972C92.2522 10.1897 93.0415 14.2936 96.6166 16.8937C102.468 21.1495 110.419 6.10121 116.818 10.8162C118.591 12.1231 119.092 13.3084 121.567 12.883C124.877 12.3141 126.633 9.48824 129.44 8.55249" stroke="white" stroke-width="2" stroke-linecap="round"/>
<path d="M73.1923 32.4689C80.9403 42.2558 88.2698 52.066 98.4867 59.5348C108.172 66.6152 119.224 71.853 130.612 75.5C144.254 79.869 158.598 83.0371 172.992 83.0576C192.66 83.0857 215.535 76.6699 223.974 57.0743C225.355 53.8691 227.112 46 225.549 40.8839" stroke="white" stroke-width="2" stroke-linecap="round"/>
<path fill-rule="evenodd" clip-rule="evenodd" d="M219.651 41.6023C219.475 41.5089 219.344 41.3496 219.286 41.1596C219.228 40.9695 219.248 40.7642 219.341 40.5886L222.828 34.0306C222.921 33.8551 223.08 33.724 223.271 33.6658C223.461 33.6077 223.666 33.6274 223.842 33.7206L230.4 37.2076C230.49 37.2517 230.571 37.3136 230.637 37.3896C230.703 37.4656 230.753 37.5542 230.784 37.6499C230.815 37.7457 230.827 37.8468 230.818 37.9471C230.809 38.0475 230.781 38.145 230.733 38.2339C230.686 38.3229 230.621 38.4014 230.543 38.4647C230.465 38.5281 230.374 38.5751 230.278 38.6028C230.181 38.6306 230.079 38.6385 229.979 38.6262C229.879 38.6139 229.783 38.5816 229.696 38.5312L223.799 35.3983L220.664 41.2924C220.571 41.4678 220.412 41.599 220.222 41.6571C220.032 41.7152 219.826 41.6955 219.651 41.6023Z" fill="white"/>
</svg>
