<svg width="135" height="39" viewBox="0 0 135 39" fill="none" xmlns="http://www.w3.org/2000/svg">
<path d="M13 11H30" stroke="#194DAB" stroke-width="3.9555"/>
<path d="M8.58 30C7.02 30 5.77 29.62 4.83 28.86C3.89 28.1 3.42 26.75 3.42 24.81V18.33H0.87V15.12H3.42L3.87 11.13H7.26V15.12H11.28V18.33H7.26V24.84C7.26 25.56 7.41 26.06 7.71 26.34C8.03 26.6 8.57 26.73 9.33 26.73H11.19V30H8.58ZM16.437 36.6L19.887 29.01H18.987L13.197 15.12H17.367L21.537 25.59L25.887 15.12H29.967L20.517 36.6H16.437Z" fill="white"/>
<path d="M37.95 30V15.12H41.37L41.73 17.91C42.27 16.95 43 16.19 43.92 15.63C44.86 15.05 45.96 14.76 47.22 14.76V18.81H46.14C45.3 18.81 44.55 18.94 43.89 19.2C43.23 19.46 42.71 19.91 42.33 20.55C41.97 21.19 41.79 22.08 41.79 23.22V30H37.95ZM56.8109 30.36C55.3109 30.36 53.9809 30.04 52.8209 29.4C51.6609 28.76 50.7509 27.86 50.0909 26.7C49.4309 25.54 49.1009 24.2 49.1009 22.68C49.1009 21.14 49.4209 19.77 50.0609 18.57C50.7209 17.37 51.6209 16.44 52.7609 15.78C53.9209 15.1 55.2809 14.76 56.8409 14.76C58.3009 14.76 59.5909 15.08 60.7109 15.72C61.8309 16.36 62.7009 17.24 63.3209 18.36C63.9609 19.46 64.2809 20.69 64.2809 22.05C64.2809 22.27 64.2709 22.5 64.2509 22.74C64.2509 22.98 64.2409 23.23 64.2209 23.49H52.9109C52.9909 24.65 53.3909 25.56 54.1109 26.22C54.8509 26.88 55.7409 27.21 56.7809 27.21C57.5609 27.21 58.2109 27.04 58.7309 26.7C59.2709 26.34 59.6709 25.88 59.9309 25.32H63.8309C63.5509 26.26 63.0809 27.12 62.4209 27.9C61.7809 28.66 60.9809 29.26 60.0209 29.7C59.0809 30.14 58.0109 30.36 56.8109 30.36ZM56.8409 17.88C55.9009 17.88 55.0709 18.15 54.3509 18.69C53.6309 19.21 53.1709 20.01 52.9709 21.09H60.3809C60.3209 20.11 59.9609 19.33 59.3009 18.75C58.6409 18.17 57.8209 17.88 56.8409 17.88ZM74.8005 30.36C73.2805 30.36 71.9405 30.03 70.7805 29.37C69.6205 28.71 68.7005 27.79 68.0205 26.61C67.3605 25.43 67.0305 24.08 67.0305 22.56C67.0305 21.04 67.3605 19.69 68.0205 18.51C68.7005 17.33 69.6205 16.41 70.7805 15.75C71.9405 15.09 73.2805 14.76 74.8005 14.76C76.7005 14.76 78.3005 15.26 79.6005 16.26C80.9005 17.24 81.7305 18.6 82.0905 20.34H78.0405C77.8405 19.62 77.4405 19.06 76.8405 18.66C76.2605 18.24 75.5705 18.03 74.7705 18.03C73.7105 18.03 72.8105 18.43 72.0705 19.23C71.3305 20.03 70.9605 21.14 70.9605 22.56C70.9605 23.98 71.3305 25.09 72.0705 25.89C72.8105 26.69 73.7105 27.09 74.7705 27.09C75.5705 27.09 76.2605 26.89 76.8405 26.49C77.4405 26.09 77.8405 25.52 78.0405 24.78H82.0905C81.7305 26.46 80.9005 27.81 79.6005 28.83C78.3005 29.85 76.7005 30.36 74.8005 30.36ZM85.4988 30V15.12H88.9188L89.2788 17.91C89.8188 16.95 90.5488 16.19 91.4688 15.63C92.4088 15.05 93.5088 14.76 94.7688 14.76V18.81H93.6888C92.8488 18.81 92.0988 18.94 91.4388 19.2C90.7788 19.46 90.2588 19.91 89.8788 20.55C89.5188 21.19 89.3388 22.08 89.3388 23.22V30H85.4988ZM102.973 30.36C101.113 30.36 99.6734 29.78 98.6534 28.62C97.6534 27.46 97.1534 25.76 97.1534 23.52V15.12H100.963V23.16C100.963 24.44 101.223 25.42 101.743 26.1C102.263 26.78 103.083 27.12 104.203 27.12C105.263 27.12 106.133 26.74 106.813 25.98C107.513 25.22 107.863 24.16 107.863 22.8V15.12H111.703V30H108.313L108.013 27.48C107.553 28.36 106.883 29.06 106.003 29.58C105.143 30.1 104.133 30.36 102.973 30.36ZM117.715 12.81C117.015 12.81 116.435 12.6 115.975 12.18C115.535 11.76 115.315 11.23 115.315 10.59C115.315 9.95 115.535 9.43 115.975 9.03C116.435 8.61 117.015 8.4 117.715 8.4C118.415 8.4 118.985 8.61 119.425 9.03C119.885 9.43 120.115 9.95 120.115 10.59C120.115 11.23 119.885 11.76 119.425 12.18C118.985 12.6 118.415 12.81 117.715 12.81ZM115.795 30V15.12H119.635V30H115.795ZM130.273 30C128.713 30 127.463 29.62 126.523 28.86C125.583 28.1 125.113 26.75 125.113 24.81V18.33H122.563V15.12H125.113L125.563 11.13H128.953V15.12H132.973V18.33H128.953V24.84C128.953 25.56 129.103 26.06 129.403 26.34C129.723 26.6 130.263 26.73 131.023 26.73H132.883V30H130.273Z" fill="white"/>
</svg>
