<svg width="153" height="39" viewBox="0 0 153 39" fill="none" xmlns="http://www.w3.org/2000/svg">
<path d="M13 11H30" stroke="#194DAB" stroke-width="3.9555"/>
<path d="M8.58 30C7.02 30 5.77 29.62 4.83 28.86C3.89 28.1 3.42 26.75 3.42 24.81V18.33H0.87V15.12H3.42L3.87 11.13H7.26V15.12H11.28V18.33H7.26V24.84C7.26 25.56 7.41 26.06 7.71 26.34C8.03 26.6 8.57 26.73 9.33 26.73H11.19V30H8.58ZM16.437 36.6L19.887 29.01H18.987L13.197 15.12H17.367L21.537 25.59L25.887 15.12H29.967L20.517 36.6H16.437Z" fill="white"/>
<path d="M45.24 30.36C43.72 30.36 42.38 30.03 41.22 29.37C40.06 28.71 39.14 27.79 38.46 26.61C37.8 25.43 37.47 24.08 37.47 22.56C37.47 21.04 37.8 19.69 38.46 18.51C39.14 17.33 40.06 16.41 41.22 15.75C42.38 15.09 43.72 14.76 45.24 14.76C47.14 14.76 48.74 15.26 50.04 16.26C51.34 17.24 52.17 18.6 52.53 20.34H48.48C48.28 19.62 47.88 19.06 47.28 18.66C46.7 18.24 46.01 18.03 45.21 18.03C44.15 18.03 43.25 18.43 42.51 19.23C41.77 20.03 41.4 21.14 41.4 22.56C41.4 23.98 41.77 25.09 42.51 25.89C43.25 26.69 44.15 27.09 45.21 27.09C46.01 27.09 46.7 26.89 47.28 26.49C47.88 26.09 48.28 25.52 48.48 24.78H52.53C52.17 26.46 51.34 27.81 50.04 28.83C48.74 29.85 47.14 30.36 45.24 30.36ZM61.0683 30.36C59.7883 30.36 58.7383 30.16 57.9183 29.76C57.0983 29.34 56.4883 28.79 56.0883 28.11C55.6883 27.43 55.4883 26.68 55.4883 25.86C55.4883 24.48 56.0283 23.36 57.1083 22.5C58.1883 21.64 59.8083 21.21 61.9683 21.21H65.7483V20.85C65.7483 19.83 65.4583 19.08 64.8783 18.6C64.2983 18.12 63.5783 17.88 62.7183 17.88C61.9383 17.88 61.2583 18.07 60.6783 18.45C60.0983 18.81 59.7383 19.35 59.5983 20.07H55.8483C55.9483 18.99 56.3083 18.05 56.9283 17.25C57.5683 16.45 58.3883 15.84 59.3883 15.42C60.3883 14.98 61.5083 14.76 62.7483 14.76C64.8683 14.76 66.5383 15.29 67.7583 16.35C68.9783 17.41 69.5883 18.91 69.5883 20.85V30H66.3183L65.9583 27.6C65.5183 28.4 64.8983 29.06 64.0983 29.58C63.3183 30.1 62.3083 30.36 61.0683 30.36ZM61.9383 27.36C63.0383 27.36 63.8883 27 64.4883 26.28C65.1083 25.56 65.4983 24.67 65.6583 23.61H62.3883C61.3683 23.61 60.6383 23.8 60.1983 24.18C59.7583 24.54 59.5383 24.99 59.5383 25.53C59.5383 26.11 59.7583 26.56 60.1983 26.88C60.6383 27.2 61.2183 27.36 61.9383 27.36ZM73.2527 30V15.12H76.6427L76.9727 17.13C77.4527 16.41 78.0827 15.84 78.8627 15.42C79.6627 14.98 80.5827 14.76 81.6227 14.76C83.9227 14.76 85.5527 15.65 86.5127 17.43C87.0527 16.61 87.7727 15.96 88.6727 15.48C89.5927 15 90.5927 14.76 91.6727 14.76C93.6127 14.76 95.1027 15.34 96.1427 16.5C97.1827 17.66 97.7027 19.36 97.7027 21.6V30H93.8627V21.96C93.8627 20.68 93.6127 19.7 93.1127 19.02C92.6327 18.34 91.8827 18 90.8627 18C89.8227 18 88.9827 18.38 88.3427 19.14C87.7227 19.9 87.4127 20.96 87.4127 22.32V30H83.5727V21.96C83.5727 20.68 83.3227 19.7 82.8227 19.02C82.3227 18.34 81.5527 18 80.5127 18C79.4927 18 78.6627 18.38 78.0227 19.14C77.4027 19.9 77.0927 20.96 77.0927 22.32V30H73.2527ZM101.348 36.6V15.12H104.768L105.188 17.25C105.668 16.59 106.298 16.01 107.078 15.51C107.878 15.01 108.908 14.76 110.168 14.76C111.568 14.76 112.818 15.1 113.918 15.78C115.018 16.46 115.888 17.39 116.528 18.57C117.168 19.75 117.488 21.09 117.488 22.59C117.488 24.09 117.168 25.43 116.528 26.61C115.888 27.77 115.018 28.69 113.918 29.37C112.818 30.03 111.568 30.36 110.168 30.36C109.048 30.36 108.068 30.15 107.228 29.73C106.388 29.31 105.708 28.72 105.188 27.96V36.6H101.348ZM109.358 27C110.578 27 111.588 26.59 112.388 25.77C113.188 24.95 113.588 23.89 113.588 22.59C113.588 21.29 113.188 20.22 112.388 19.38C111.588 18.54 110.578 18.12 109.358 18.12C108.118 18.12 107.098 18.54 106.298 19.38C105.518 20.2 105.128 21.26 105.128 22.56C105.128 23.86 105.518 24.93 106.298 25.77C107.098 26.59 108.118 27 109.358 27ZM126.499 30.36C124.639 30.36 123.199 29.78 122.179 28.62C121.179 27.46 120.679 25.76 120.679 23.52V15.12H124.489V23.16C124.489 24.44 124.749 25.42 125.269 26.1C125.789 26.78 126.609 27.12 127.729 27.12C128.789 27.12 129.659 26.74 130.339 25.98C131.039 25.22 131.389 24.16 131.389 22.8V15.12H135.229V30H131.839L131.539 27.48C131.079 28.36 130.409 29.06 129.529 29.58C128.669 30.1 127.659 30.36 126.499 30.36ZM145.321 30.36C144.001 30.36 142.841 30.15 141.841 29.73C140.841 29.29 140.041 28.69 139.441 27.93C138.841 27.17 138.481 26.29 138.361 25.29H142.231C142.351 25.87 142.671 26.37 143.191 26.79C143.731 27.19 144.421 27.39 145.261 27.39C146.101 27.39 146.711 27.22 147.091 26.88C147.491 26.54 147.691 26.15 147.691 25.71C147.691 25.07 147.411 24.64 146.851 24.42C146.291 24.18 145.511 23.95 144.511 23.73C143.871 23.59 143.221 23.42 142.561 23.22C141.901 23.02 141.291 22.77 140.731 22.47C140.191 22.15 139.751 21.75 139.411 21.27C139.071 20.77 138.901 20.16 138.901 19.44C138.901 18.12 139.421 17.01 140.461 16.11C141.521 15.21 143.001 14.76 144.901 14.76C146.661 14.76 148.061 15.17 149.101 15.99C150.161 16.81 150.791 17.94 150.991 19.38H147.361C147.141 18.28 146.311 17.73 144.871 17.73C144.151 17.73 143.591 17.87 143.191 18.15C142.811 18.43 142.621 18.78 142.621 19.2C142.621 19.64 142.911 19.99 143.491 20.25C144.071 20.51 144.841 20.75 145.801 20.97C146.841 21.21 147.791 21.48 148.651 21.78C149.531 22.06 150.231 22.49 150.751 23.07C151.271 23.63 151.531 24.44 151.531 25.5C151.551 26.42 151.311 27.25 150.811 27.99C150.311 28.73 149.591 29.31 148.651 29.73C147.711 30.15 146.601 30.36 145.321 30.36Z" fill="white"/>
</svg>
