<svg width="32" height="45" viewBox="0 0 32 45" fill="none" xmlns="http://www.w3.org/2000/svg">
<path d="M12 11H32" stroke="#194DAB" stroke-width="3.9555"/>
<path d="M11.19 28.65V33H8.58C6.72 33 5.27 32.55 4.23 31.65C3.19 30.73 2.67 29.24 2.67 27.18V20.52H0.63V16.26H2.67V12.18H7.8V16.26H11.16V20.52H7.8V27.24C7.8 27.74 7.92 28.1 8.16 28.32C8.4 28.54 8.8 28.65 9.36 28.65H11.19ZM31.1475 16.26L20.6475 40.95H15.1275L18.9675 32.43L12.1575 16.26H17.8875L21.7575 26.73L25.5975 16.26H31.1475Z" fill="black"/>
</svg>
