<svg width="16" height="16" viewBox="0 0 16 16" fill="none" xmlns="http://www.w3.org/2000/svg">
<path fill-rule="evenodd" clip-rule="evenodd" d="M4 6.5C4.39782 6.5 4.77936 6.34197 5.06066 6.06066C5.34196 5.77936 5.5 5.39783 5.5 5C5.5 4.60218 5.34196 4.22065 5.06066 3.93934C4.77936 3.65804 4.39782 3.5 4 3.5C3.60218 3.5 3.22064 3.65804 2.93934 3.93934C2.65804 4.22065 2.5 4.60218 2.5 5C2.5 5.39783 2.65804 5.77936 2.93934 6.06066C3.22064 6.34197 3.60218 6.5 4 6.5ZM7 5C7.0012 5.79174 6.68832 6.55163 6.13 7.113C6.70292 7.4731 7.17504 7.97277 7.50211 8.56517C7.82918 9.15757 8.0005 9.82331 8 10.5V12C8 12.5304 7.78929 13.0391 7.41421 13.4142C7.03914 13.7893 6.53043 14 6 14H2C1.46957 14 0.960859 13.7893 0.585786 13.4142C0.210714 13.0391 0 12.5304 0 12V10.5C0 9.073 0.747 7.821 1.87 7.113C1.52296 6.7631 1.26746 6.3331 1.12609 5.86099C0.984716 5.38889 0.961825 4.88923 1.05944 4.40618C1.15705 3.92313 1.37216 3.47156 1.68576 3.0914C1.99935 2.71123 2.40178 2.41418 2.85745 2.22649C3.31313 2.0388 3.80802 1.96626 4.2984 2.01527C4.78877 2.06429 5.25951 2.23336 5.66902 2.50753C6.07853 2.78171 6.41419 3.15254 6.64633 3.58726C6.87846 4.02198 6.99994 4.50719 7 5ZM1.5 10.5C1.5 9.83696 1.76339 9.20108 2.23223 8.73224C2.70107 8.26339 3.33696 8 4 8C4.66304 8 5.29893 8.26339 5.76777 8.73224C6.23661 9.20108 6.5 9.83696 6.5 10.5V12C6.5 12.1326 6.44732 12.2598 6.35355 12.3536C6.25979 12.4473 6.13261 12.5 6 12.5H2C1.86739 12.5 1.74021 12.4473 1.64645 12.3536C1.55268 12.2598 1.5 12.1326 1.5 12V10.5ZM15.78 5.28C15.9125 5.13783 15.9846 4.94978 15.9812 4.75548C15.9777 4.56118 15.899 4.37579 15.7616 4.23838C15.6242 4.10097 15.4388 4.02226 15.2445 4.01883C15.0502 4.0154 14.8622 4.08752 14.72 4.22L12 6.94L10.78 5.72C10.7113 5.64632 10.6285 5.58721 10.5365 5.54622C10.4445 5.50523 10.3452 5.48319 10.2445 5.48141C10.1438 5.47963 10.0438 5.49816 9.9504 5.53588C9.85701 5.5736 9.77218 5.62975 9.70096 5.70096C9.62974 5.77218 9.5736 5.85702 9.53588 5.9504C9.49816 6.04379 9.47963 6.14382 9.48141 6.24452C9.48318 6.34523 9.50523 6.44454 9.54622 6.53654C9.58721 6.62854 9.64631 6.71134 9.72 6.78L11.47 8.53C11.6106 8.67045 11.8012 8.74934 12 8.74934C12.1988 8.74934 12.3894 8.67045 12.53 8.53L15.78 5.28Z" fill="white"/>
</svg>
