<svg width="16" height="16" viewBox="0 0 16 16" fill="none" xmlns="http://www.w3.org/2000/svg">
<g id="pajamas:chart">
<path id="Vector" fill-rule="evenodd" clip-rule="evenodd" d="M3.75 1C3.94891 1 4.13968 1.07902 4.28033 1.21967C4.42098 1.36032 4.5 1.55109 4.5 1.75V11.5H14.25C14.4489 11.5 14.6397 11.579 14.7803 11.7197C14.921 11.8603 15 12.0511 15 12.25C15 12.4489 14.921 12.6397 14.7803 12.7803C14.6397 12.921 14.4489 13 14.25 13H4.5V14.25C4.5 14.4489 4.42098 14.6397 4.28033 14.7803C4.13968 14.921 3.94891 15 3.75 15C3.55109 15 3.36032 14.921 3.21967 14.7803C3.07902 14.6397 3 14.4489 3 14.25V13H1.75C1.55109 13 1.36032 12.921 1.21967 12.7803C1.07902 12.6397 1 12.4489 1 12.25C1 12.0511 1.07902 11.8603 1.21967 11.7197C1.36032 11.579 1.55109 11.5 1.75 11.5H3V1.75C3 1.55109 3.07902 1.36032 3.21967 1.21967C3.36032 1.07902 3.55109 1 3.75 1ZM13.5 5.75C13.5 5.55109 13.421 5.36032 13.2803 5.21967C13.1397 5.07902 12.9489 5 12.75 5C12.5511 5 12.3603 5.07902 12.2197 5.21967C12.079 5.36032 12 5.55109 12 5.75V9.25C12 9.44891 12.079 9.63968 12.2197 9.78033C12.3603 9.92098 12.5511 10 12.75 10C12.9489 10 13.1397 9.92098 13.2803 9.78033C13.421 9.63968 13.5 9.44891 13.5 9.25V5.75ZM9.75 3C9.94891 3 10.1397 3.07902 10.2803 3.21967C10.421 3.36032 10.5 3.55109 10.5 3.75V9.25C10.5 9.44891 10.421 9.63968 10.2803 9.78033C10.1397 9.92098 9.94891 10 9.75 10C9.55109 10 9.36032 9.92098 9.21967 9.78033C9.07902 9.63968 9 9.44891 9 9.25V3.75C9 3.55109 9.07902 3.36032 9.21967 3.21967C9.36032 3.07902 9.55109 3 9.75 3ZM7.5 7.75C7.5 7.55109 7.42098 7.36032 7.28033 7.21967C7.13968 7.07902 6.94891 7 6.75 7C6.55109 7 6.36032 7.07902 6.21967 7.21967C6.07902 7.36032 6 7.55109 6 7.75V9.25C6 9.44891 6.07902 9.63968 6.21967 9.78033C6.36032 9.92098 6.55109 10 6.75 10C6.94891 10 7.13968 9.92098 7.28033 9.78033C7.42098 9.63968 7.5 9.44891 7.5 9.25V7.75Z" fill="white"/>
</g>
</svg>
