<svg width="18" height="18" viewBox="0 0 18 18" fill="none" xmlns="http://www.w3.org/2000/svg">
<g id="pajamas:check-circle-dashed" clip-path="url(#clip0_1_457)">
<path id="Vector" fill-rule="evenodd" clip-rule="evenodd" d="M7.53864 1.21499C7.47366 1.00121 7.32655 0.821936 7.12956 0.716485C6.93258 0.611034 6.70181 0.58802 6.48789 0.652491C5.10521 1.06837 3.84746 1.82113 2.82758 2.84318C1.80769 3.86523 1.05759 5.12456 0.644635 6.50812C0.612946 6.61434 0.602489 6.72576 0.613861 6.83603C0.625233 6.94629 0.658213 7.05324 0.710916 7.15076C0.763619 7.24828 0.835013 7.33446 0.921024 7.40439C1.00703 7.47431 1.10597 7.52661 1.2122 7.5583C1.31842 7.58999 1.42985 7.60045 1.54011 7.58908C1.65037 7.57771 1.75732 7.54473 1.85484 7.49202C1.95236 7.43932 2.03854 7.36793 2.10847 7.28192C2.17839 7.19591 2.2307 7.09696 2.26239 6.99074C2.59511 5.87477 3.19981 4.85891 4.02216 4.03439C4.84452 3.20987 5.85879 2.60252 6.97389 2.26687C7.18808 2.20236 7.36789 2.05544 7.47379 1.85841C7.57969 1.66137 7.60302 1.42922 7.53864 1.21499ZM10.4614 1.21499C10.5261 1.00101 10.6731 0.821462 10.8702 0.715786C11.0672 0.610109 11.2981 0.58694 11.5121 0.651366C12.8949 1.06735 14.1528 1.82028 15.1727 2.84254C16.1926 3.86479 16.9426 5.12436 17.3554 6.50812C17.4194 6.72264 17.3955 6.95381 17.2891 7.15076C17.1827 7.3477 17.0023 7.4943 16.7878 7.5583C16.5733 7.6223 16.3421 7.59846 16.1452 7.49202C15.9482 7.38558 15.8016 7.20527 15.7376 6.99074C15.4049 5.87477 14.8002 4.85891 13.9779 4.03439C13.1555 3.20987 12.1412 2.60252 11.0261 2.26687C10.8119 2.20236 10.6321 2.05544 10.5262 1.85841C10.4203 1.66137 10.397 1.42922 10.4614 1.21499ZM13.2525 5.87249C13.4105 6.03069 13.4993 6.24515 13.4993 6.46874C13.4993 6.69234 13.4105 6.90679 13.2525 7.06499L8.19001 12.1275C8.03181 12.2855 7.81735 12.3742 7.59376 12.3742C7.37017 12.3742 7.15571 12.2855 6.99751 12.1275L5.02876 10.1587C4.87972 9.99879 4.79858 9.78724 4.80244 9.56865C4.8063 9.35007 4.89485 9.14151 5.04944 8.98692C5.20403 8.83233 5.41258 8.74378 5.63117 8.73992C5.84976 8.73606 6.06131 8.8172 6.22126 8.96624L7.59376 10.3387L12.06 5.87249C12.2182 5.71448 12.4327 5.62573 12.6563 5.62573C12.8799 5.62573 13.0943 5.71448 13.2525 5.87249ZM11.5121 17.3475C11.4052 17.3825 11.2924 17.3957 11.1803 17.3864C11.0681 17.3771 10.959 17.3455 10.8593 17.2935C10.7596 17.2414 10.6713 17.1699 10.5996 17.0832C10.5279 16.9965 10.4743 16.8963 10.4419 16.7886C10.4095 16.6809 10.3989 16.5678 10.4109 16.4559C10.4228 16.344 10.457 16.2357 10.5115 16.1373C10.5659 16.0388 10.6395 15.9522 10.7279 15.8826C10.8163 15.813 10.9177 15.7618 11.0261 15.732C12.1412 15.3962 13.1554 14.7889 13.9777 13.9644C14.8001 13.1399 15.4048 12.124 15.7376 11.0081C15.7693 10.9019 15.8216 10.803 15.8916 10.7169C15.9615 10.6309 16.0477 10.5595 16.1452 10.5068C16.2427 10.4541 16.3496 10.4212 16.4599 10.4098C16.5702 10.3984 16.6816 10.4089 16.7878 10.4406C16.894 10.4722 16.993 10.5245 17.079 10.5945C17.165 10.6644 17.2364 10.7506 17.2891 10.8481C17.3418 10.9456 17.3748 11.0526 17.3862 11.1628C17.3975 11.2731 17.3871 11.3845 17.3554 11.4907C16.9426 12.8745 16.1926 14.1341 15.1727 15.1563C14.1528 16.1786 12.8949 16.9315 11.5121 17.3475ZM6.48789 17.3475C6.59481 17.3825 6.70765 17.3957 6.81976 17.3864C6.93187 17.3771 7.041 17.3455 7.14072 17.2935C7.24044 17.2414 7.32873 17.1699 7.40042 17.0832C7.4721 16.9965 7.52573 16.8963 7.55814 16.7886C7.59055 16.6809 7.60108 16.5678 7.58913 16.4559C7.57718 16.344 7.54298 16.2357 7.48854 16.1373C7.43411 16.0388 7.36053 15.9522 7.27215 15.8826C7.18376 15.813 7.08236 15.7618 6.97389 15.732C5.85879 15.3963 4.84452 14.789 4.02216 13.9645C3.19981 13.1399 2.59511 12.1241 2.26239 11.0081C2.19839 10.7936 2.05179 10.6133 1.85484 10.5068C1.65789 10.4004 1.42672 10.3766 1.2122 10.4406C0.997671 10.5046 0.817354 10.6512 0.710916 10.8481C0.604477 11.0451 0.580635 11.2762 0.644635 11.4907C1.05743 12.8745 1.80746 14.1341 2.82735 15.1563C3.84725 16.1786 5.10508 16.9315 6.48789 17.3475Z" fill="#194DAB"/>
</g>
<defs>
<clipPath id="clip0_1_457">
<rect width="18" height="18" fill="white"/>
</clipPath>
</defs>
</svg>
