<svg xmlns="http://www.w3.org/2000/svg" width="16" height="16" viewBox="0 0 16 16" fill="none">
  <g clip-path="url(#clip0_15_83)">
    <path fill-rule="evenodd" clip-rule="evenodd" d="M6.70106 1.08006C6.64331 0.890036 6.51254 0.730678 6.33745 0.636944C6.16235 0.543209 5.95722 0.522752 5.76706 0.58006C4.53802 0.949733 3.42002 1.61885 2.51345 2.52734C1.60689 3.43582 0.940136 4.55524 0.573063 5.78506C0.544895 5.87948 0.5356 5.97852 0.545708 6.07654C0.555817 6.17455 0.585132 6.26961 0.631979 6.3563C0.678826 6.44298 0.742288 6.51959 0.818742 6.58174C0.895195 6.6439 0.983143 6.69039 1.07756 6.71856C1.17198 6.74673 1.27103 6.75602 1.36904 6.74591C1.46705 6.73581 1.56212 6.70649 1.6488 6.65964C1.73548 6.6128 1.81209 6.54934 1.87425 6.47288C1.9364 6.39643 1.9829 6.30848 2.01106 6.21406C2.30682 5.22208 2.84433 4.3191 3.57531 3.58619C4.30629 2.85329 5.20787 2.31342 6.19906 2.01506C6.38946 1.95772 6.54929 1.82713 6.64342 1.65199C6.73756 1.47684 6.75829 1.27049 6.70106 1.08006ZM9.29906 1.08006C9.35661 0.889852 9.48729 0.730257 9.66241 0.636322C9.83753 0.542387 10.0428 0.521792 10.2331 0.57906C11.4622 0.948827 12.5803 1.6181 13.4869 2.52677C14.3934 3.43544 15.0601 4.55505 15.4271 5.78506C15.484 5.97575 15.4628 6.18123 15.3681 6.3563C15.2735 6.53136 15.1133 6.66167 14.9226 6.71856C14.7319 6.77545 14.5264 6.75426 14.3513 6.65964C14.1763 6.56503 14.046 6.40475 13.9891 6.21406C13.6933 5.22208 13.1558 4.3191 12.4248 3.58619C11.6938 2.85329 10.7923 2.31342 9.80106 2.01506C9.61067 1.95772 9.45084 1.82713 9.3567 1.65199C9.26257 1.47684 9.24184 1.27049 9.29906 1.08006ZM11.7801 5.22006C11.9205 5.36068 11.9994 5.55131 11.9994 5.75006C11.9994 5.94881 11.9205 6.13943 11.7801 6.28006L7.28006 10.7801C7.13944 10.9205 6.94881 10.9994 6.75006 10.9994C6.55131 10.9994 6.36069 10.9205 6.22006 10.7801L4.47006 9.03006C4.33758 8.88788 4.26546 8.69984 4.26889 8.50554C4.27232 8.31124 4.35103 8.12585 4.48844 7.98844C4.62585 7.85102 4.81124 7.77231 5.00554 7.76888C5.19984 7.76546 5.38789 7.83758 5.53006 7.97006L6.75006 9.19006L10.7201 5.22006C10.8607 5.07961 11.0513 5.00072 11.2501 5.00072C11.4488 5.00072 11.6394 5.07961 11.7801 5.22006ZM10.2331 15.4201C10.138 15.4511 10.0377 15.4629 9.93807 15.4547C9.83841 15.4464 9.74141 15.4183 9.65277 15.372C9.56413 15.3257 9.48564 15.2622 9.42192 15.1851C9.3582 15.1081 9.31054 15.019 9.28173 14.9233C9.25292 14.8275 9.24356 14.727 9.25418 14.6275C9.2648 14.5281 9.2952 14.4318 9.34359 14.3443C9.39198 14.2568 9.45738 14.1798 9.53594 14.118C9.61451 14.0561 9.70465 14.0106 9.80106 13.9841C10.7922 13.6856 11.6937 13.1457 12.4247 12.4128C13.1557 11.6799 13.6932 10.777 13.9891 9.78506C14.0172 9.69064 14.0637 9.60269 14.1259 9.52624C14.188 9.44978 14.2646 9.38632 14.3513 9.33947C14.438 9.29263 14.5331 9.26331 14.6311 9.2532C14.7291 9.2431 14.8281 9.25239 14.9226 9.28056C15.017 9.30873 15.1049 9.35522 15.1814 9.41738C15.2578 9.47953 15.3213 9.55614 15.3681 9.64282C15.415 9.72951 15.4443 9.82457 15.4544 9.92258C15.4645 10.0206 15.4552 10.1196 15.4271 10.2141C15.0601 11.4441 14.3934 12.5637 13.4869 13.4724C12.5803 14.381 11.4622 15.0503 10.2331 15.4201ZM5.76706 15.4201C5.86211 15.4511 5.96241 15.4629 6.06206 15.4547C6.16172 15.4464 6.25872 15.4183 6.34736 15.372C6.436 15.3257 6.51449 15.2622 6.57821 15.1851C6.64193 15.1081 6.68959 15.019 6.7184 14.9233C6.74721 14.8275 6.75657 14.727 6.74595 14.6275C6.73533 14.5281 6.70493 14.4318 6.65654 14.3443C6.60815 14.2568 6.54275 14.1798 6.46419 14.118C6.38562 14.0561 6.29548 14.0106 6.19906 13.9841C5.20787 13.6857 4.30629 13.1458 3.57531 12.4129C2.84433 11.68 2.30682 10.777 2.01106 9.78506C1.95417 9.59437 1.82386 9.43409 1.6488 9.33947C1.47373 9.24486 1.26825 9.22367 1.07756 9.28056C0.886873 9.33745 0.726591 9.46776 0.631979 9.64282C0.537367 9.81789 0.516175 10.0234 0.573063 10.2141C0.939993 11.4441 1.60668 12.5637 2.51326 13.4724C3.41983 14.381 4.53791 15.0503 5.76706 15.4201Z" fill="#16C144"/>
  </g>
  <defs>
    <clipPath id="clip0_15_83">
      <rect width="16" height="16" fill="white"/>
    </clipPath>
  </defs>
</svg>