<svg xmlns="http://www.w3.org/2000/svg" width="167" height="121" viewBox="0 0 167 121" fill="none">
  <path fill-rule="evenodd" clip-rule="evenodd" d="M40.7074 63.7297C71.6057 48.8672 81.0411 15.0657 81.8598 0L84.8554 0.162803C84.8493 0.274552 84.8428 0.387303 84.8358 0.501042L84.855 0.5C85.6738 15.5657 95.1091 49.3672 126.007 64.2297C146.037 73.864 156.542 86.0944 161.825 96.7263C164.462 102.031 165.789 106.92 166.357 110.859C166.92 114.757 166.754 117.827 166.304 119.476L163.41 118.687C163.71 117.586 163.919 114.969 163.388 111.288C162.863 107.649 161.627 103.069 159.139 98.0615C154.173 88.0684 144.178 76.2988 124.707 66.9332C101.296 55.672 89.7578 34.118 84.8574 17.1669V120.581H81.8574V16.6669C76.957 33.618 65.4193 55.172 42.0078 66.4332C22.5371 75.7988 12.5421 87.5684 7.57589 97.5615C5.08738 102.569 3.85176 107.149 3.32662 110.788C2.79535 114.469 3.00445 117.086 3.30477 118.187L0.410481 118.976C-0.0391942 117.327 -0.205097 114.257 0.357386 110.359C0.925994 106.42 2.25287 101.531 4.88936 96.2263C10.1731 85.5944 20.6782 73.364 40.7074 63.7297Z" fill="url(#paint0_linear_15_58)"/>
  <defs>
    <linearGradient id="paint0_linear_15_58" x1="83.3574" y1="0" x2="83.3574" y2="120.581" gradientUnits="userSpaceOnUse">
      <stop stop-color="#194DAB" stop-opacity="0.5"/>
      <stop offset="1" stop-color="#194DAB" stop-opacity="0"/>
    </linearGradient>
  </defs>
</svg>