<svg width="31" height="44" viewBox="0 0 31 44" fill="none" xmlns="http://www.w3.org/2000/svg">
<path d="M11.7449 11.5L30.3661 11.5" stroke="#194DAB" stroke-width="3.9555"/>
<path d="M10.8953 27.7646V32H8.35401C6.543 32 5.1312 31.5619 4.11859 30.6856C3.10598 29.7898 2.59968 28.339 2.59968 26.3333V19.8487H0.613407V15.7009H2.59968V11.7284H7.59456V15.7009H10.8661V19.8487H7.59456V26.3917C7.59456 26.8785 7.7114 27.2291 7.94508 27.4433C8.17876 27.6575 8.56822 27.7646 9.11347 27.7646H10.8953ZM30.3271 15.7009L20.1037 39.7406H14.7291L18.4679 31.445L11.8373 15.7009H17.4164L21.1844 25.8951L24.9233 15.7009H30.3271Z" fill="white"/>
</svg>
