<svg width="112" height="39" viewBox="0 0 112 39" fill="none" xmlns="http://www.w3.org/2000/svg">
<path d="M13 11H30" stroke="#194DAB" stroke-width="3.9555"/>
<path d="M8.58 30C7.02 30 5.77 29.62 4.83 28.86C3.89 28.1 3.42 26.75 3.42 24.81V18.33H0.87V15.12H3.42L3.87 11.13H7.26V15.12H11.28V18.33H7.26V24.84C7.26 25.56 7.41 26.06 7.71 26.34C8.03 26.6 8.57 26.73 9.33 26.73H11.19V30H8.58ZM16.437 36.6L19.887 29.01H18.987L13.197 15.12H17.367L21.537 25.59L25.887 15.12H29.967L20.517 36.6H16.437Z" fill="white"/>
<path d="M37.95 30V15.12H41.34L41.67 17.13C42.15 16.41 42.78 15.84 43.56 15.42C44.36 14.98 45.28 14.76 46.32 14.76C48.62 14.76 50.25 15.65 51.21 17.43C51.75 16.61 52.47 15.96 53.37 15.48C54.29 15 55.29 14.76 56.37 14.76C58.31 14.76 59.8 15.34 60.84 16.5C61.88 17.66 62.4 19.36 62.4 21.6V30H58.56V21.96C58.56 20.68 58.31 19.7 57.81 19.02C57.33 18.34 56.58 18 55.56 18C54.52 18 53.68 18.38 53.04 19.14C52.42 19.9 52.11 20.96 52.11 22.32V30H48.27V21.96C48.27 20.68 48.02 19.7 47.52 19.02C47.02 18.34 46.25 18 45.21 18C44.19 18 43.36 18.38 42.72 19.14C42.1 19.9 41.79 20.96 41.79 22.32V30H37.95ZM71.1757 30.36C69.8957 30.36 68.8457 30.16 68.0257 29.76C67.2057 29.34 66.5957 28.79 66.1957 28.11C65.7957 27.43 65.5957 26.68 65.5957 25.86C65.5957 24.48 66.1357 23.36 67.2157 22.5C68.2957 21.64 69.9157 21.21 72.0757 21.21H75.8557V20.85C75.8557 19.83 75.5657 19.08 74.9857 18.6C74.4057 18.12 73.6857 17.88 72.8257 17.88C72.0457 17.88 71.3657 18.07 70.7857 18.45C70.2057 18.81 69.8457 19.35 69.7057 20.07H65.9557C66.0557 18.99 66.4157 18.05 67.0357 17.25C67.6757 16.45 68.4957 15.84 69.4957 15.42C70.4957 14.98 71.6157 14.76 72.8557 14.76C74.9757 14.76 76.6457 15.29 77.8657 16.35C79.0857 17.41 79.6957 18.91 79.6957 20.85V30H76.4257L76.0657 27.6C75.6257 28.4 75.0057 29.06 74.2057 29.58C73.4257 30.1 72.4157 30.36 71.1757 30.36ZM72.0457 27.36C73.1457 27.36 73.9957 27 74.5957 26.28C75.2157 25.56 75.6057 24.67 75.7657 23.61H72.4957C71.4757 23.61 70.7457 23.8 70.3057 24.18C69.8657 24.54 69.6457 24.99 69.6457 25.53C69.6457 26.11 69.8657 26.56 70.3057 26.88C70.7457 27.2 71.3257 27.36 72.0457 27.36ZM89.7851 30C88.2251 30 86.9751 29.62 86.0351 28.86C85.0951 28.1 84.6251 26.75 84.6251 24.81V18.33H82.0751V15.12H84.6251L85.0751 11.13H88.4651V15.12H92.4851V18.33H88.4651V24.84C88.4651 25.56 88.6151 26.06 88.9151 26.34C89.2351 26.6 89.7751 26.73 90.5351 26.73H92.3951V30H89.7851ZM102.631 30.36C101.131 30.36 99.8012 30.04 98.6412 29.4C97.4812 28.76 96.5712 27.86 95.9112 26.7C95.2512 25.54 94.9212 24.2 94.9212 22.68C94.9212 21.14 95.2412 19.77 95.8812 18.57C96.5412 17.37 97.4412 16.44 98.5812 15.78C99.7412 15.1 101.101 14.76 102.661 14.76C104.121 14.76 105.411 15.08 106.531 15.72C107.651 16.36 108.521 17.24 109.141 18.36C109.781 19.46 110.101 20.69 110.101 22.05C110.101 22.27 110.091 22.5 110.071 22.74C110.071 22.98 110.061 23.23 110.041 23.49H98.7312C98.8112 24.65 99.2112 25.56 99.9312 26.22C100.671 26.88 101.561 27.21 102.601 27.21C103.381 27.21 104.031 27.04 104.551 26.7C105.091 26.34 105.491 25.88 105.751 25.32H109.651C109.371 26.26 108.901 27.12 108.241 27.9C107.601 28.66 106.801 29.26 105.841 29.7C104.901 30.14 103.831 30.36 102.631 30.36ZM102.661 17.88C101.721 17.88 100.891 18.15 100.171 18.69C99.4512 19.21 98.9912 20.01 98.7912 21.09H106.201C106.141 20.11 105.781 19.33 105.121 18.75C104.461 18.17 103.641 17.88 102.661 17.88Z" fill="white"/>
</svg>
